<?xml version="1.0" encoding="UTF-8" standalone="no"?>
<?xml-stylesheet type="text/css" href="../../css/main.css"?>
<svg
   xmlns:dc="http://purl.org/dc/elements/1.1/"
   xmlns:cc="http://creativecommons.org/ns#"
   xmlns:rdf="http://www.w3.org/1999/02/22-rdf-syntax-ns#"
   xmlns:svg="http://www.w3.org/2000/svg"
   xmlns="http://www.w3.org/2000/svg"
   xmlns:sodipodi="http://sodipodi.sourceforge.net/DTD/sodipodi-0.dtd"
   xmlns:inkscape="http://www.inkscape.org/namespaces/inkscape"
   id="svg17372"
   version="1.1"
   viewBox="0 0 8.0642796 7.2843198"
   height="7.2843199mm"
   width="8.0642796mm"
   sodipodi:docname="about.svg"
   inkscape:version="0.92.0 r">
  <sodipodi:namedview
     pagecolor="#ffffff"
     bordercolor="#666666"
     borderopacity="1"
     objecttolerance="10"
     gridtolerance="10"
     guidetolerance="10"
     inkscape:pageopacity="0"
     inkscape:pageshadow="2"
     inkscape:window-width="2108"
     inkscape:window-height="1217"
     id="namedview4516"
     showgrid="false"
     inkscape:zoom="10.996578"
     inkscape:cx="13.753844"
     inkscape:cy="13.765646"
     inkscape:window-x="0"
     inkscape:window-y="23"
     inkscape:window-maximized="0"
     inkscape:current-layer="svg17372" />
  <defs
     id="defs17366" />
  <metadata
     id="metadata17369">
    <rdf:RDF>
      <cc:Work
         rdf:about="">
        <dc:format>image/svg+xml</dc:format>
        <dc:type
           rdf:resource="http://purl.org/dc/dcmitype/StillImage" />
        <dc:title></dc:title>
      </cc:Work>
    </rdf:RDF>
  </metadata>
  <g
     transform="translate(617.10941,95.957641)"
     id="layer1">
    <path
       id="path12385"
       d="m -610.24896,-88.673321 h 0.33349 l 0.0221,-0.09233 c 0.011,-0.04961 0.073,-0.197058 0.13642,-0.326595 0.0634,-0.129536 0.14194,-0.325215 0.17226,-0.436837 0.0317,-0.110244 0.0716,-0.380341 0.091,-0.599448 l 0.0344,-0.396875 -0.0606,-0.190168 c -0.0344,-0.104732 -0.084,-0.253559 -0.11162,-0.332108 -0.0276,-0.07855 -0.0716,-0.159852 -0.0965,-0.180523 l -0.0468,-0.03858 0.0207,-0.157096 0.0207,-0.155719 -0.0827,-0.09922 c -0.0455,-0.05512 -0.0937,-0.13367 -0.10749,-0.177767 -0.0124,-0.04272 -0.0772,-0.184657 -0.14194,-0.316949 -0.0661,-0.132292 -0.17914,-0.311437 -0.25218,-0.398253 -0.0744,-0.08682 -0.18879,-0.194303 -0.25631,-0.238401 -0.0675,-0.0441 -0.16813,-0.09646 -0.22325,-0.115755 -0.0551,-0.02067 -0.21359,-0.07028 -0.35277,-0.110243 -0.13781,-0.03996 -0.35692,-0.108865 -0.48645,-0.152962 -0.12954,-0.04272 -0.25081,-0.101975 -0.26872,-0.130914 l -0.0331,-0.05237 0.0413,-0.05926 c 0.0234,-0.03169 0.0744,-0.126779 0.11162,-0.209462 l 0.0689,-0.150206 -0.0234,-0.278364 -0.022,-0.278364 0.0854,-0.865407 -0.0524,-0.111622 c -0.0276,-0.06201 -0.0565,-0.129535 -0.0634,-0.152962 -0.007,-0.02205 -0.0854,-0.115755 -0.17501,-0.209461 -0.0896,-0.09371 -0.19568,-0.176389 -0.23565,-0.18328 -0.0386,-0.0069 -0.15158,-0.03032 -0.2508,-0.04961 -0.0978,-0.02067 -0.2949,-0.03721 -0.43822,-0.03721 h -0.25907 l -0.14883,0.07166 c -0.0827,0.03996 -0.24942,0.169499 -0.37207,0.28801 l -0.22324,0.214974 -0.0234,0.107487 c -0.0124,0.05926 -0.0317,0.194303 -0.04,0.30179 l -0.0179,0.195682 0.0524,0.157096 c 0.0276,0.08682 0.0675,0.232888 0.0882,0.323839 0.0207,0.09095 0.062,0.219108 0.091,0.285254 0.0303,0.06477 0.113,0.197059 0.18328,0.293522 l 0.12953,0.175011 v 0.114377 c 0,0.06339 -0.0193,0.129536 -0.0427,0.14745 -0.0234,0.01792 -0.11713,0.07166 -0.20946,0.118512 -0.0923,0.04548 -0.22875,0.112999 -0.30179,0.147449 -0.073,0.03445 -0.20946,0.113 -0.30179,0.175011 -0.0923,0.06201 -0.32384,0.187414 -0.51263,0.279742 -0.19017,0.09095 -0.34451,0.180523 -0.34451,0.198438 0,0.01792 -0.10887,0.143316 -0.24391,0.276985 l -0.24254,0.243913 -0.21497,0.401009 c -0.11851,0.220486 -0.24391,0.436838 -0.27699,0.480935 -0.0344,0.0441 -0.062,0.106109 -0.062,0.137806 0,0.03168 -0.0496,0.111618 -0.11162,0.176388 -0.0606,0.06477 -0.1695,0.237021 -0.24116,0.381717 l -0.13091,0.264583 -0.0124,0.219107 -0.0138,0.217731 0.0841,0.117132 c 0.0468,0.06477 0.11576,0.177769 0.15158,0.25218 0.0372,0.07304 0.10611,0.220486 0.15297,0.326598 l 0.0841,0.192924 h 1.08451 l -0.0152,-0.04134 c -0.008,-0.02343 -0.051,-0.136427 -0.0923,-0.25218 -0.0413,-0.114378 -0.0896,-0.209462 -0.10474,-0.209462 -0.0165,0 -0.0289,-0.01654 -0.0289,-0.03721 0,-0.02067 -0.0606,-0.128157 -0.13505,-0.239779 -0.073,-0.110243 -0.13367,-0.212217 -0.13367,-0.227376 0,-0.01517 0.0827,-0.106108 0.18466,-0.203948 0.10059,-0.09646 0.18465,-0.192927 0.18465,-0.21222 0,-0.02067 0.0992,-0.140557 0.22049,-0.265959 l 0.22186,-0.227376 0.0689,0.01101 0.0689,0.0096 0.0468,0.184658 c 0.0262,0.101974 0.0841,0.265959 0.12954,0.365178 l 0.0827,0.180523 0.0455,0.406524 c 0.0248,0.22462 0.0427,0.486445 0.04,0.584288 l -0.006,0.175009 h 3.54018 l 0.0221,-0.343101 c 0.011,-0.190168 0.0234,-0.62425 0.0276,-0.966004 l 0.007,-0.620116 0.0427,-0.143316 0.0427,-0.141937 h 0.0441 c 0.0234,0 0.0689,0.02755 0.0992,0.06063 0.0303,0.03447 0.0551,0.08544 0.0551,0.114378 0,0.02755 0.0207,0.09784 0.0441,0.155719 l 0.0441,0.103354 -0.0276,0.278363 c -0.0138,0.152961 -0.0482,0.352777 -0.0744,0.445106 l -0.0496,0.16812 -0.0193,0.445107 -0.0207,0.443727 z m 0,0"
       style="fill:var(--ajw-heading-element);fill-opacity:1;fill-rule:nonzero;stroke:none;stroke-width:0.35277775"
       inkscape:connector-curvature="0" />
  </g>
</svg>
