<?xml version="1.0" encoding="UTF-8" standalone="no"?>
<?xml-stylesheet type="text/css" href="../../css/main.css"?>
<svg
   xmlns:dc="http://purl.org/dc/elements/1.1/"
   xmlns:cc="http://creativecommons.org/ns#"
   xmlns:rdf="http://www.w3.org/1999/02/22-rdf-syntax-ns#"
   xmlns:svg="http://www.w3.org/2000/svg"
   xmlns="http://www.w3.org/2000/svg"
   id="svg14332"
   version="1.1"
   viewBox="0 0 24.564968 22.539455"
   height="22.539455mm"
   width="24.564968mm">
  <defs
     id="defs14326" />
  <metadata
     id="metadata14329">
    <rdf:RDF>
      <cc:Work
         rdf:about="">
        <dc:format>image/svg+xml</dc:format>
        <dc:type
           rdf:resource="http://purl.org/dc/dcmitype/StillImage" />
        <dc:title></dc:title>
      </cc:Work>
    </rdf:RDF>
  </metadata>
  <g
     transform="translate(-34.586518,-18.878951)"
     id="layer1">
    <path
       id="path6471"
       d="m 43.618272,41.4184 h -0.802016 l -0.05099,-0.221864 c -0.02893,-0.122645 -0.177765,-0.476801 -0.330729,-0.788238 -0.15434,-0.311437 -0.340374,-0.785482 -0.414789,-1.051443 -0.07579,-0.267339 -0.17363,-0.917773 -0.219107,-1.444184 l -0.08268,-0.957737 0.146075,-0.457508 c 0.08131,-0.252181 0.201193,-0.611849 0.267338,-0.80064 0.06752,-0.187414 0.172255,-0.384473 0.234266,-0.43546 l 0.111622,-0.09233 -0.04961,-0.377582 -0.05099,-0.377583 0.199817,-0.2384 c 0.110243,-0.130913 0.225997,-0.323838 0.259069,-0.427191 0.03172,-0.103353 0.186038,-0.447862 0.343133,-0.764811 0.157096,-0.316949 0.431327,-0.749653 0.607716,-0.959115 0.177765,-0.21084 0.454752,-0.468533 0.617361,-0.574642 0.162606,-0.104731 0.405141,-0.23151 0.537432,-0.279742 0.133671,-0.04823 0.516767,-0.16812 0.850251,-0.264583 0.333485,-0.09784 0.861276,-0.263205 1.172711,-0.367936 0.311436,-0.104731 0.602203,-0.248047 0.6463,-0.316949 l 0.0813,-0.125401 -0.101974,-0.141938 c -0.0565,-0.07855 -0.176388,-0.305925 -0.268717,-0.50574 l -0.165365,-0.362424 0.05512,-0.671105 0.0565,-0.671105 -0.206703,-2.083594 0.124022,-0.270095 c 0.06752,-0.14745 0.137802,-0.312815 0.154341,-0.366558 0.01654,-0.05374 0.206706,-0.28112 0.421678,-0.50574 0.216352,-0.224621 0.47129,-0.423058 0.566375,-0.440972 0.09646,-0.01792 0.367936,-0.07304 0.604957,-0.121268 0.237024,-0.04823 0.712445,-0.0882 1.056958,-0.0882 h 0.625626 l 0.358292,0.172255 c 0.197058,0.09646 0.600823,0.407899 0.895724,0.693153 l 0.538815,0.519521 0.05512,0.257693 c 0.0303,0.141938 0.07441,0.469911 0.09646,0.728982 l 0.04134,0.469911 -0.124022,0.380339 c -0.06752,0.208083 -0.163989,0.559483 -0.213597,0.778591 -0.04961,0.220486 -0.14745,0.529167 -0.219106,0.687641 -0.07166,0.157097 -0.270098,0.475424 -0.440972,0.706935 l -0.31144,0.421679 v 0.276986 c 0,0.151584 0.04548,0.311437 0.101978,0.355534 0.05512,0.04272 0.282497,0.170877 0.505738,0.282498 0.221866,0.111621 0.54846,0.272851 0.726225,0.355533 0.176389,0.08406 0.504363,0.27423 0.727604,0.423058 0.223245,0.150206 0.778591,0.451997 1.234723,0.672483 0.456131,0.220486 0.829581,0.43546 0.829581,0.479557 0,0.0441 0.263204,0.34451 0.587044,0.668349 l 0.585664,0.588422 0.519521,0.964626 c 0.285253,0.531923 0.585668,1.052822 0.666972,1.158931 0.0813,0.106109 0.148827,0.256315 0.148827,0.332107 0,0.07717 0.119888,0.26734 0.267338,0.424436 0.147451,0.155718 0.409279,0.570508 0.581533,0.920529 l 0.314195,0.638032 0.03168,0.525032 0.03168,0.526411 -0.202572,0.282498 c -0.111619,0.155718 -0.275608,0.428569 -0.365178,0.607714 -0.08957,0.177767 -0.254939,0.531924 -0.366558,0.788238 l -0.202566,0.464399 h -2.61552 l 0.03859,-0.100597 c 0.02067,-0.05512 0.121268,-0.327973 0.221866,-0.606336 0.100594,-0.278364 0.214972,-0.50574 0.253559,-0.50574 0.03858,0 0.07028,-0.04134 0.07028,-0.09095 0,-0.04961 0.146074,-0.30868 0.323839,-0.57602 0.177768,-0.265961 0.322464,-0.51263 0.322464,-0.548459 0,-0.03721 -0.199817,-0.256315 -0.443731,-0.490581 -0.24529,-0.232889 -0.445107,-0.4644 -0.445107,-0.514009 0,-0.04823 -0.239776,-0.336241 -0.533298,-0.638031 l -0.533301,-0.54846 -0.165365,0.02481 -0.166743,0.02481 -0.112999,0.445106 c -0.06201,0.243913 -0.202572,0.640788 -0.312815,0.880567 l -0.198437,0.43546 -0.110243,0.979785 c -0.06064,0.538812 -0.104733,1.171332 -0.09646,1.404221 l 0.01379,0.424435 h -8.531439 l -0.05099,-0.828201 c -0.02755,-0.45613 -0.05788,-1.503439 -0.06752,-2.326128 l -0.01517,-1.49655 -0.10335,-0.343131 -0.104732,-0.344509 h -0.10473 c -0.05788,0 -0.166744,0.06752 -0.23978,0.148828 -0.07304,0.0813 -0.133671,0.203949 -0.133671,0.272851 0,0.07028 -0.04823,0.239779 -0.106108,0.377583 l -0.104729,0.249424 0.06477,0.669727 c 0.03447,0.367936 0.115753,0.85025 0.180523,1.072114 l 0.117133,0.405143 0.04823,1.072114 0.04823,1.070735 z m 0,0"
       style="fill:var(--ajw-banner-element);fill-opacity:1;fill-rule:nonzero;stroke:none;stroke-width:0.35277775" />
    <path
       id="path6665"
       transform="scale(0.26458333)"
       d="m 149.07617,71.353516 v 0.002 c -3.38021,0 -6.12109,2.644531 -6.12109,5.910156 0,0.135432 0.0304,0.26042 0.041,0.390625 -0.75,-0.249989 -1.57293,-0.390625 -2.4375,-0.390625 -3.4948,0 -6.32812,2.260418 -6.32812,5.046875 0,0.151049 0.0372,0.291686 0.0527,0.4375 -2.05209,0.401046 -3.5625,1.672527 -3.5625,3.193359 0,1.838544 2.20312,3.333985 4.92188,3.333985 0.0208,1.833331 2.21483,3.3125 4.91797,3.3125 0.95312,0 1.82681,-0.188153 2.58203,-0.50586 0.2917,1.63537 2.58987,2.915969 5.41801,2.915969 1.66666,0 3.13933,-0.452471 4.14453,-1.150391 1.14063,1.114583 2.89648,1.84375 4.88086,1.84375 3.45312,0 6.25,-2.146486 6.25,-4.802734 0,-0.635418 -0.17318,-1.239584 -0.46485,-1.796875 0.39585,0.09373 0.80208,0.162109 1.23438,0.162109 2.64584,0 4.79297,-1.895834 4.79297,-4.234375 0,-2.338541 -2.14713,-4.234375 -4.79297,-4.234375 -0.3802,0 -0.74938,0.04623 -1.10352,0.119141 0.20308,-0.557291 0.33399,-1.146487 0.33399,-1.771484 0,-2.895833 -2.35937,-5.244141 -5.26563,-5.244141 -1.44792,0 -2.75976,0.583337 -3.71289,1.53125 -0.80208,-2.354166 -3.07291,-4.068359 -5.78125,-4.068359 z m -1.67773,5.003906 c 0.27148,-0.005 0.52799,0.002 0.75976,0.002 h 0.55664 c 0.26563,0 0.48047,0.21289 0.48047,0.478516 v 1.027343 c 0,0.265622 -0.21484,0.478516 -0.48047,0.478516 h -0.6289 c -0.41667,0 -0.74608,-0.01644 -0.9961,-0.0059 -0.25,0.01561 -0.40625,0.05339 -0.5625,0.152343 -0.43745,0.276042 -0.49414,0.936843 -0.49414,1.259766 0,0.390626 0.0527,0.791014 0.0527,1.275391 0,0.458332 -0.0528,1.063148 -0.33399,1.646484 l -0.006,0.0098 c -0.1927,0.385413 -0.48309,0.703768 -0.8164,0.974609 0.59375,0.494793 1.10351,1.369794 1.10351,2.8125 0,0.588544 -0.0566,1.06185 -0.0566,1.509766 0,0.567707 0.0879,1.141965 0.52539,1.433593 l 0.0117,0.0039 c 0.32812,0.229341 0.76432,0.21875 1.51953,0.21875 h 0.66797 c 0.2604,0.0052 0.47852,0.218749 0.47852,0.484375 V 91.125 c 0,0.265621 -0.21811,0.478516 -0.47852,0.478516 h -0.65234 c -1.09895,0 -2.16665,0.07355 -3.10938,-0.634766 h -0.006 c -1.14081,-0.88021 -1.17578,-2.313151 -1.17578,-2.990234 0,-0.723961 0.0566,-1.270833 0.0566,-1.796875 0,-0.723958 -0.10286,-1.076829 -0.3164,-1.285157 -0.0102,-0.0049 -0.0162,-0.01033 -0.0215,-0.01563 -0.20833,-0.218532 -0.45311,-0.208984 -0.78125,-0.208984 h -0.375 c -0.26561,0 -0.48437,-0.21875 -0.48437,-0.484375 v -1.005859 c 0,-0.265622 0.21875,-0.478516 0.48437,-0.478516 h 0.35352 c 0.32292,0 0.60027,0 0.85547,-0.265625 0.2708,-0.302083 0.33789,-0.785807 0.33789,-1.197266 0,-0.390625 -0.0527,-0.802736 -0.0527,-1.271484 0,-0.734374 0.11523,-1.911456 1.05274,-2.765625 0.77343,-0.710935 1.71679,-0.830566 2.53125,-0.845703 z m 5.93164,0 c 0.82177,0.01514 1.76369,0.134777 2.53711,0.845703 0.94272,0.854166 1.03515,2.041664 1.03515,2.765625 0,0.453124 -0.0352,0.870442 -0.0352,1.271484 0,0.427083 0.0508,0.900384 0.33203,1.197266 l 0.0117,0.0059 c 0.23437,0.255118 0.52473,0.259766 0.84765,0.259766 h 0.33985 c 0.26561,0 0.48437,0.21289 0.48437,0.478516 V 84.1875 c 0,0.265614 -0.21875,0.484375 -0.48437,0.484375 h -0.35938 c -0.32292,0 -0.5794,-0.01562 -0.80859,0.21875 -0.20837,0.208335 -0.32813,0.572263 -0.32813,1.291016 0,0.515625 0.0742,1.062501 0.0742,1.796875 0,0.677083 -0.043,2.120444 -1.19922,2.990234 -0.92708,0.713537 -1.99479,0.634766 -3.09375,0.634766 h -0.64453 c -0.26561,0 -0.48047,-0.212891 -0.48047,-0.478516 v -1.005859 c 0,-0.265618 0.21485,-0.479084 0.48047,-0.484375 h 0.66602 c 0.75,0 1.17186,0.01562 1.5,-0.21875 l 0.01,-0.0039 c 0.4375,-0.291666 0.52149,-0.865886 0.52149,-1.433593 0,-0.447916 -0.0527,-0.921226 -0.0527,-1.509766 0,-1.437498 0.51629,-2.312503 1.11524,-2.8125 -0.33854,-0.270833 -0.63541,-0.583976 -0.82813,-0.974609 l -0.006,-0.0098 c -0.28633,-0.593749 -0.3164,-1.203777 -0.3164,-1.646484 0,-0.484377 0.0508,-0.884765 0.0508,-1.275391 0,-0.322915 -0.0508,-0.978531 -0.50391,-1.259766 l -0.0156,-0.0059 c -0.14063,-0.09373 -0.29168,-0.130988 -0.54688,-0.146484 -0.25,-0.0102 -0.58853,0.0059 -1,0.0059 h -0.61523 c -0.26042,0 -0.47852,-0.21289 -0.47852,-0.478516 v -1.027343 c 0,-0.265626 0.21807,-0.478516 0.47852,-0.478516 h 0.54101 c 0.23698,0 0.49756,-0.007 0.77149,-0.002 z"
       style="fill:var(--ajw-banner-element);fill-opacity:1;fill-rule:nonzero;stroke:none;stroke-width:1.33333325" />
    <path
       id="path6667"
       d="m 46.233791,22.048695 c 0.372068,0 0.673858,0.303169 0.673858,0.675239 0,0.373448 -0.30179,0.675239 -0.673858,0.675239 -0.373451,0 -0.675241,-0.301791 -0.675241,-0.675239 0,-0.37207 0.30179,-0.675239 0.675241,-0.675239 z m 0,0"
       style="fill:var(--ajw-banner-element);fill-opacity:1;fill-rule:nonzero;stroke:none;stroke-width:0.35277775" />
    <path
       id="path6669"
       d="m 47.890192,22.70602 c 0.270094,0 0.49058,0.220486 0.49058,0.491959 0,0.271474 -0.220486,0.49196 -0.49058,0.49196 -0.272853,0 -0.493339,-0.220486 -0.493339,-0.49196 0,-0.271473 0.220486,-0.491959 0.493339,-0.491959 z m 0,0"
       style="fill:var(--ajw-banner-element);fill-opacity:1;fill-rule:nonzero;stroke:none;stroke-width:0.35277775" />
  </g>
</svg>
