<?xml version="1.0" encoding="UTF-8" standalone="no"?>
<!-- Created with Inkscape (http://www.inkscape.org/) -->

<svg
   xmlns:dc="http://purl.org/dc/elements/1.1/"
   xmlns:cc="http://creativecommons.org/ns#"
   xmlns:rdf="http://www.w3.org/1999/02/22-rdf-syntax-ns#"
   xmlns:svg="http://www.w3.org/2000/svg"
   xmlns="http://www.w3.org/2000/svg"
   xmlns:sodipodi="http://sodipodi.sourceforge.net/DTD/sodipodi-0.dtd"
   xmlns:inkscape="http://www.inkscape.org/namespaces/inkscape"
   width="13.8479mm"
   height="15.81161mm"
   viewBox="0 0 13.8479 15.81161"
   version="1.1"
   id="svg20979"
   inkscape:version="0.92.0 r"
   sodipodi:docname="data_store.svg">
  <defs
     id="defs20973" />
  <sodipodi:namedview
     id="base"
     pagecolor="#ffffff"
     bordercolor="#666666"
     borderopacity="1.0"
     inkscape:pageopacity="0.0"
     inkscape:pageshadow="2"
     inkscape:zoom="0.35"
     inkscape:cx="-928.11645"
     inkscape:cy="387.02308"
     inkscape:document-units="mm"
     inkscape:current-layer="layer1"
     showgrid="false"
     fit-margin-top="0"
     fit-margin-left="0"
     fit-margin-right="0"
     fit-margin-bottom="0"
     inkscape:window-width="2560"
     inkscape:window-height="1395"
     inkscape:window-x="0"
     inkscape:window-y="23"
     inkscape:window-maximized="0" />
  <metadata
     id="metadata20976">
    <rdf:RDF>
      <cc:Work
         rdf:about="">
        <dc:format>image/svg+xml</dc:format>
        <dc:type
           rdf:resource="http://purl.org/dc/dcmitype/StillImage" />
        <dc:title></dc:title>
      </cc:Work>
    </rdf:RDF>
  </metadata>
  <g
     inkscape:label="Layer 1"
     inkscape:groupmode="layer"
     id="layer1"
     transform="translate(-151.82605,-235.42158)">
    <path
       inkscape:connector-curvature="0"
       style="fill:#303030;fill-opacity:1;fill-rule:nonzero;stroke:none;stroke-width:0.35277775"
       d="m 158.74931,235.42158 c -3.33485,0 -6.92326,1.00458 -6.92326,3.2122 v 9.3872 c 0,2.20624 3.58841,3.21221 6.92326,3.21221 3.33486,0 6.92464,-1.00597 6.92464,-3.21221 v -9.3872 c 0,-2.20762 -3.58978,-3.2122 -6.92464,-3.2122 z m 5.93521,12.5994 c 0,1.22783 -2.65686,2.22415 -5.93521,2.22415 -3.27835,0 -5.93383,-0.99632 -5.93383,-2.22415 v -1.8452 c 1.02112,1.05145 3.48643,1.59853 5.93383,1.59853 2.44878,0 4.91271,-0.54708 5.93521,-1.59853 z m 0,-2.96416 h -0.003 c 0,0.006 0.003,0.011 0.003,0.0152 0,1.21956 -2.65686,2.20899 -5.93521,2.20899 -3.27697,0 -5.93383,-0.98943 -5.93383,-2.20899 0,-0.004 0.001,-0.01 0.001,-0.0152 h -0.001 v -1.84657 c 1.02112,1.05282 3.48643,1.5999 5.93383,1.5999 2.44878,0 4.91271,-0.54708 5.93521,-1.5999 z m 0,-2.96416 h -0.003 c 0,0.004 0.003,0.01 0.003,0.0152 0,1.21956 -2.65686,2.20762 -5.93521,2.20762 -3.27697,0 -5.93383,-0.98806 -5.93383,-2.20762 0,-0.006 0.001,-0.011 0.001,-0.0152 h -0.001 v -1.69775 c 1.29535,0.98668 3.67109,1.4497 5.93383,1.4497 2.26274,0 4.63848,-0.46302 5.93521,-1.4497 z m -5.93521,-1.2361 c -3.27835,0 -5.93383,-0.99632 -5.93383,-2.22278 0,-1.22921 2.65548,-2.22415 5.93383,-2.22415 3.27835,0 5.93521,0.99494 5.93521,2.22415 0,1.22646 -2.65686,2.22278 -5.93521,2.22278 z m 0,0"
       id="path12987" />
    <path
       inkscape:connector-curvature="0"
       style="fill:#303030;fill-opacity:1;fill-rule:nonzero;stroke:none;stroke-width:0.35277775"
       d="m 163.69509,248.26903 c 0,0.27285 -0.22186,0.49333 -0.49472,0.49333 -0.27285,0 -0.49471,-0.22048 -0.49471,-0.49333 0,-0.27286 0.22186,-0.49472 0.49471,-0.49472 0.27286,0 0.49472,0.22186 0.49472,0.49472 z m 0,0"
       id="path12989" />
    <path
       inkscape:connector-curvature="0"
       style="fill:#303030;fill-opacity:1;fill-rule:nonzero;stroke:none;stroke-width:0.35277775"
       d="m 163.69509,245.30349 c 0,0.27285 -0.22186,0.49471 -0.49472,0.49471 -0.27285,0 -0.49471,-0.22186 -0.49471,-0.49471 0,-0.27285 0.22186,-0.49334 0.49471,-0.49334 0.27286,0 0.49472,0.22049 0.49472,0.49334 z m 0,0"
       id="path12991" />
    <path
       inkscape:connector-curvature="0"
       style="fill:#303030;fill-opacity:1;fill-rule:nonzero;stroke:none;stroke-width:0.35277775"
       d="m 163.69509,242.33933 c 0,0.27285 -0.22186,0.49333 -0.49472,0.49333 -0.27285,0 -0.49471,-0.22048 -0.49471,-0.49333 0,-0.27285 0.22186,-0.49472 0.49471,-0.49472 0.27286,0 0.49472,0.22187 0.49472,0.49472 z m 0,0"
       id="path12993" />
  </g>
</svg>
