<?xml version="1.0" encoding="UTF-8" standalone="no"?>
<?xml-stylesheet type="text/css" href="../../css/main.css"?>
<!-- Created with Inkscape (http://www.inkscape.org/) -->

<svg
   xmlns:dc="http://purl.org/dc/elements/1.1/"
   xmlns:cc="http://creativecommons.org/ns#"
   xmlns:rdf="http://www.w3.org/1999/02/22-rdf-syntax-ns#"
   xmlns:svg="http://www.w3.org/2000/svg"
   xmlns="http://www.w3.org/2000/svg"
   xmlns:sodipodi="http://sodipodi.sourceforge.net/DTD/sodipodi-0.dtd"
   xmlns:inkscape="http://www.inkscape.org/namespaces/inkscape"
   width="8.4060411mm"
   height="7.2843089mm"
   viewBox="0 0 8.4060411 7.2843089"
   version="1.1"
   id="svg18605"
   inkscape:version="0.92.0 r"
   sodipodi:docname="education.svg">
  <defs
     id="defs18599" />
  <sodipodi:namedview
     id="base"
     pagecolor="#ffffff"
     bordercolor="#666666"
     borderopacity="1.0"
     inkscape:pageopacity="0.0"
     inkscape:pageshadow="2"
     inkscape:zoom="0.35"
     inkscape:cx="53.028301"
     inkscape:cy="-314.80581"
     inkscape:document-units="mm"
     inkscape:current-layer="layer1"
     showgrid="false"
     fit-margin-top="0"
     fit-margin-left="0"
     fit-margin-right="0"
     fit-margin-bottom="0"
     inkscape:window-width="2560"
     inkscape:window-height="1395"
     inkscape:window-x="0"
     inkscape:window-y="23"
     inkscape:window-maximized="0" />
  <metadata
     id="metadata18602">
    <rdf:RDF>
      <cc:Work
         rdf:about="">
        <dc:format>image/svg+xml</dc:format>
        <dc:type
           rdf:resource="http://purl.org/dc/dcmitype/StillImage" />
        <dc:title></dc:title>
      </cc:Work>
    </rdf:RDF>
  </metadata>
  <g
     inkscape:label="Layer 1"
     inkscape:groupmode="layer"
     id="layer1"
     transform="translate(107.7685,-58.256655)">
    <path
       inkscape:connector-curvature="0"
       style="fill:var(--ajw-heading-element);fill-opacity:1;fill-rule:evenodd;stroke:none;stroke-width:0.35277775"
       d="m -103.84522,58.256655 -0.0634,0.0069 -3.64215,0.840603 c -0.12816,0.02894 -0.21773,0.143316 -0.21773,0.272852 0,0.130914 0.0896,0.243913 0.21773,0.27423 l 3.64215,0.840603 0.0634,0.0069 0.062,-0.0069 3.64216,-0.840603 c 0.12678,-0.03032 0.217727,-0.143316 0.217727,-0.27423 0,-0.129536 -0.09095,-0.243913 -0.217727,-0.272852 l -3.64216,-0.840603 z m 3.921897,2.242068 c -0.154337,0 -0.279737,0.125401 -0.279737,0.279742 v 2.52181 c 0,0.154341 0.1254,0.279743 0.279737,0.279743 0.154341,0 0.279742,-0.125402 0.279742,-0.279743 v -2.52181 c 0,-0.154341 -0.125401,-0.279742 -0.279742,-0.279742 z m -6.443707,0 v 2.24069 c 0,0.310059 0.84061,0.840605 2.52181,0.840605 1.67983,0 2.52043,-0.530546 2.52043,-0.840605 v -2.24069 l -2.33164,0.538813 c -0.0648,0.01378 -0.12815,0.02067 -0.18879,0.02067 -0.062,0 -0.1254,-0.0069 -0.18603,-0.02067 z m 6.443707,3.362412 c -0.310057,0 -0.560857,0.810289 -0.560857,1.120345 0,0.308681 0.2508,0.559484 0.560857,0.559484 0.308681,0 0.560864,-0.250803 0.560864,-0.559484 0,-0.310056 -0.252183,-1.120345 -0.560864,-1.120345 z m 0,0"
       id="path6697" />
  </g>
</svg>
