<?xml version="1.0" encoding="UTF-8" standalone="no"?>
<?xml-stylesheet type="text/css" href="../../css/main.css"?>
<!-- Created with Inkscape (http://www.inkscape.org/) -->

<svg
   xmlns:dc="http://purl.org/dc/elements/1.1/"
   xmlns:cc="http://creativecommons.org/ns#"
   xmlns:rdf="http://www.w3.org/1999/02/22-rdf-syntax-ns#"
   xmlns:svg="http://www.w3.org/2000/svg"
   xmlns="http://www.w3.org/2000/svg"
   xmlns:sodipodi="http://sodipodi.sourceforge.net/DTD/sodipodi-0.dtd"
   xmlns:inkscape="http://www.inkscape.org/namespaces/inkscape"
   width="8.0642796mm"
   height="7.2843099mm"
   viewBox="0 0 8.0642796 7.2843099"
   version="1.1"
   id="svg20686"
   inkscape:version="0.92.0 r"
   sodipodi:docname="experience.svg">
  <defs
     id="defs20680" />
  <sodipodi:namedview
     id="base"
     pagecolor="#ffffff"
     bordercolor="#666666"
     borderopacity="1.0"
     inkscape:pageopacity="0.0"
     inkscape:pageshadow="2"
     inkscape:zoom="1.979899"
     inkscape:cx="-92.548489"
     inkscape:cy="54.171733"
     inkscape:document-units="mm"
     inkscape:current-layer="layer1"
     showgrid="false"
     fit-margin-top="0"
     fit-margin-left="0"
     fit-margin-right="0"
     fit-margin-bottom="0"
     inkscape:window-width="1440"
     inkscape:window-height="851"
     inkscape:window-x="0"
     inkscape:window-y="23"
     inkscape:window-maximized="0" />
  <metadata
     id="metadata20683">
    <rdf:RDF>
      <cc:Work
         rdf:about="">
        <dc:format>image/svg+xml</dc:format>
        <dc:type
           rdf:resource="http://purl.org/dc/dcmitype/StillImage" />
        <dc:title></dc:title>
      </cc:Work>
    </rdf:RDF>
  </metadata>
  <g
     inkscape:label="Layer 1"
     inkscape:groupmode="layer"
     id="layer1"
     transform="translate(-101.80119,-145.19118)">
    <path
       inkscape:connector-curvature="0"
       id="path11398"
       d="m 109.47549,145.19118 h -7.28431 c -0.21635,0 -0.38999,0.17501 -0.38999,0.38998 v 5.20348 c 0,0.21497 0.17364,0.38998 0.38999,0.38998 h 2.47082 v 0.65043 l -0.51952,0.5209 v 0.12954 h 3.38171 v -0.12954 l -0.51952,-0.5209 v -0.65043 h 2.47082 c 0.21635,0 0.38998,-0.17501 0.38998,-0.38998 v -5.20348 c 0,-0.21497 -0.17363,-0.38998 -0.38998,-0.38998 z m -0.12954,4.94302 h -7.02524 v -4.4235 h 7.02524 z m 0,0"
       style="fill:var(--ajw-heading-element);fill-opacity:1;fill-rule:nonzero;stroke:none;stroke-width:0.35277775" />
    <path
       inkscape:connector-curvature="0"
       style="fill:var(--ajw-heading-element);fill-opacity:1;stroke:none;stroke-width:0.35277775"
       d="m 103.03682,146.89046 v 0.15434 c -0.23703,0.0275 -0.39688,0.18741 -0.39688,0.36931 0,0.0937 0.0386,0.23702 0.25356,0.33624 0.0496,0.0275 0.0937,0.0441 0.14332,0.0606 v 0.56224 c -0.13229,-0.0165 -0.24805,-0.0827 -0.31971,-0.15985 -0.011,-0.011 -0.011,-0.0165 -0.006,-0.0275 0,0 0,-0.0165 -0.0165,-0.0221 l -0.11024,0.14883 c 0.11576,0.12678 0.27561,0.19844 0.452,0.20395 v 0.15985 h 0.14883 v -0.15985 c 0.29214,-0.0386 0.42443,-0.24253 0.42443,-0.42443 0,-0.23151 -0.19844,-0.31971 -0.25356,-0.34176 -0.0551,-0.0275 -0.11024,-0.0441 -0.17087,-0.0661 v -0.49059 c 0.11024,0.011 0.19292,0.0606 0.24253,0.12678 0.011,0.011 0.011,0.011 0.011,0.0165 0.006,0.005 0.006,0.011 0.006,0.0221 0,0.011 0.006,0.0165 0.011,0.0165 l 0.11025,-0.1378 c -0.0937,-0.11576 -0.226,-0.1819 -0.38034,-0.19844 v -0.0937 c 0,-0.0276 0.0165,-0.0276 0.0165,-0.0496 0,0 0,-0.006 0,-0.006 z m 0.14882,0.96462 c 0.0551,0.0165 0.0992,0.0331 0.1323,0.0496 0.10473,0.0606 0.12678,0.14332 0.12678,0.19844 0,0.11575 -0.0937,0.23151 -0.25908,0.26458 z m -0.14882,-0.22049 c -0.0331,-0.0165 -0.0606,-0.0331 -0.0882,-0.0441 -0.11575,-0.0661 -0.14331,-0.14332 -0.14331,-0.19844 0,-0.0882 0.0716,-0.18741 0.23151,-0.20395 z m 0,0"
       id="path20641" />
    <path
       inkscape:connector-curvature="0"
       style="fill:var(--ajw-heading-element);fill-opacity:1;stroke:none;stroke-width:0.35277775"
       d="m 104.17306,147.38104 0.23702,1.17409 h 0.16536 l 0.20395,-0.75517 0.22049,0.75517 h 0.17087 c 0.0772,-0.38585 0.14332,-0.77722 0.19293,-1.16858 h -0.16536 c 0,0.14332 -0.011,0.27009 -0.11025,0.93707 l -0.24804,-0.83234 h -0.11576 l -0.19844,0.83785 -0.17087,-0.84888 c -0.006,-0.0165 -0.006,-0.022 0,-0.0441 0.006,-0.0165 0.011,-0.0331 0.006,-0.0551 z m 0,0"
       id="path20646" />
    <path
       inkscape:connector-curvature="0"
       style="fill:var(--ajw-heading-element);fill-opacity:1;stroke:none;stroke-width:0.35277775"
       d="m 105.64688,147.52435 0.0882,0.11576 c 0.0992,-0.0992 0.23151,-0.13229 0.34175,-0.13229 0.13781,0 0.20395,0.0606 0.23702,0.11575 0.0386,0.0606 0.0386,0.13781 0.0386,0.19844 v 0.0441 h -0.0386 c -0.17087,0 -0.35829,0 -0.50711,0.0551 -0.18191,0.0661 -0.26459,0.20395 -0.26459,0.33072 0,0.17088 0.14883,0.33625 0.39137,0.33625 0.14331,0 0.29214,-0.0551 0.41892,-0.15986 v 0.12679 h 0.17639 v -0.72761 c 0,-0.0937 -0.006,-0.1819 -0.0551,-0.27561 -0.0772,-0.12678 -0.226,-0.19292 -0.4079,-0.19292 -0.15985,0 -0.30868,0.0496 -0.41893,0.16536 z m 0.71107,0.47956 v 0.0827 c 0,0.0606 0,0.13781 -0.0772,0.22049 -0.0441,0.0441 -0.15434,0.1378 -0.30868,0.1378 -0.15434,0 -0.24805,-0.0992 -0.24805,-0.20395 0,-0.0882 0.0606,-0.1819 0.20395,-0.21497 0.11025,-0.0275 0.26459,-0.0221 0.39137,-0.0221 z m 0,0"
       id="path20651" />
    <path
       inkscape:connector-curvature="0"
       style="fill:var(--ajw-heading-element);fill-opacity:1;stroke:none;stroke-width:0.35277775"
       d="m 107.17583,147.07235 -0.022,0.3142 h -0.27561 l -0.006,0.14883 h 0.27561 c -0.0165,0.20395 -0.022,0.40238 -0.022,0.60082 0,0.10473 0,0.22049 0.0661,0.31971 0.0551,0.0772 0.14883,0.12126 0.2701,0.12126 0.1378,0 0.27009,-0.0606 0.36931,-0.13229 l -0.0551,-0.14331 c -0.0992,0.0717 -0.19293,0.10473 -0.26459,0.10473 -0.0827,0 -0.17639,-0.0441 -0.19292,-0.18742 0,-0.011 -0.011,-0.0551 -0.011,-0.22599 0,-0.14883 0.011,-0.30317 0.022,-0.45751 h 0.38585 v -0.15434 h -0.38034 c 0,0 0.0165,-0.20947 0.0276,-0.27561 0.006,-0.0221 0.0276,-0.0386 0.0165,-0.0662 z m 0,0"
       id="path20656" />
    <path
       inkscape:connector-curvature="0"
       style="fill:var(--ajw-heading-element);fill-opacity:1;stroke:none;stroke-width:0.35277775"
       d="m 108.78824,148.44488 c 0,-0.0827 -0.0717,-0.14883 -0.15434,-0.14883 -0.0827,0 -0.15434,0.0661 -0.15434,0.14883 0,0.0772 0.0717,0.14332 0.15434,0.14332 0.0827,0 0.15434,-0.0661 0.15434,-0.14332 z m -0.66146,-1.32291 0.1323,0.11575 c 0.0827,-0.13229 0.22048,-0.22049 0.34726,-0.22049 0.15434,0 0.2701,0.12127 0.2701,0.2701 0,0.17088 -0.13229,0.27561 -0.20946,0.35829 -0.11576,0.12678 -0.12127,0.21497 -0.12127,0.33073 v 0.10473 h 0.16536 v -0.10473 c 0,-0.0882 0.011,-0.16537 0.11576,-0.25907 0.0827,-0.0772 0.25356,-0.17639 0.25356,-0.41341 0,-0.24254 -0.16537,-0.452 -0.45751,-0.452 -0.19293,0 -0.38034,0.0937 -0.4961,0.2701 z m 0,0"
       id="path20661" />
  </g>
</svg>
