<?xml version="1.0" encoding="UTF-8" standalone="no"?>
<?xml-stylesheet type="text/css" href="../../css/main.css"?>
<svg
   xmlns:dc="http://purl.org/dc/elements/1.1/"
   xmlns:cc="http://creativecommons.org/ns#"
   xmlns:rdf="http://www.w3.org/1999/02/22-rdf-syntax-ns#"
   xmlns:svg="http://www.w3.org/2000/svg"
   xmlns="http://www.w3.org/2000/svg"
   id="svg14930"
   version="1.1"
   viewBox="0 0 4.7615657 5.6594057"
   height="5.6594057mm"
   width="4.7615657mm">
  <defs
     id="defs14924" />
  <metadata
     id="metadata14927">
    <rdf:RDF>
      <cc:Work
         rdf:about="">
        <dc:format>image/svg+xml</dc:format>
        <dc:type
           rdf:resource="http://purl.org/dc/dcmitype/StillImage" />
        <dc:title></dc:title>
      </cc:Work>
    </rdf:RDF>
  </metadata>
  <g
     transform="translate(-19.523521,-170.2658)"
     id="layer1">
    <path
       id="path6659"
       d="m 20.233713,170.26584 c -0.05099,0.13367 -0.08544,0.28526 -0.100594,0.45338 -0.01654,0.16812 0.0013,0.32935 0.05236,0.48093 -0.114377,0.12816 -0.203946,0.27423 -0.267338,0.4396 -0.06339,0.16536 -0.09508,0.3514 -0.09508,0.56224 0,0.20257 0.02341,0.39687 0.07165,0.58153 0.04823,0.18328 0.136427,0.34726 0.267343,0.49058 0.129532,0.14332 0.305922,0.26045 0.527788,0.35278 0.22324,0.0923 0.508498,0.1502 0.858515,0.17639 -0.02479,0.0124 -0.05925,0.0276 -0.100594,0.0427 -0.04134,0.0165 -0.08544,0.0386 -0.132292,0.0675 -0.04823,0.0276 -0.09233,0.0661 -0.13367,0.11438 -0.04134,0.0469 -0.07166,0.11162 -0.09095,0.1943 -0.08268,0.0579 -0.165364,0.0923 -0.248047,0.10611 -0.08268,0.0124 -0.158472,0.0124 -0.228753,0 -0.07028,-0.0138 -0.13367,-0.0358 -0.190172,-0.0675 -0.05787,-0.0317 -0.106109,-0.0634 -0.143314,-0.0951 -0.08268,-0.0703 -0.162608,-0.15572 -0.2384,-0.25769 -0.07717,-0.10198 -0.152961,-0.16812 -0.228754,-0.19982 -0.01241,-0.0124 -0.05237,-0.0221 -0.118512,-0.0289 -0.06752,-0.006 -0.119891,0.0124 -0.158475,0.0565 -0.01929,0.0193 -0.01654,0.0413 0.0055,0.0634 0.02204,0.0221 0.05375,0.0482 0.09509,0.0799 0.04134,0.0317 0.08957,0.0744 0.143317,0.12953 0.05374,0.0538 0.103349,0.12127 0.147447,0.20395 0.08268,0.17226 0.168121,0.29766 0.257694,0.37759 0.08819,0.0785 0.219109,0.13504 0.391363,0.16674 0.100595,0.0193 0.192924,0.0248 0.275609,0.0193 0.08268,-0.007 0.150204,-0.0193 0.201192,-0.0386 0,0.16536 0,0.31695 0.0041,0.45337 0.0028,0.13643 -0.0013,0.22049 -0.01378,0.25218 -0.02617,0.051 -0.06339,0.0951 -0.110244,0.13367 -0.04823,0.0372 -0.08682,0.0661 -0.118512,0.0854 -0.03168,0.0193 -0.04272,0.0427 -0.0303,0.0717 0.01378,0.0289 0.05787,0.0455 0.133671,0.0524 0.03858,0 0.08682,-0.006 0.143316,-0.0193 0.05787,-0.0124 0.111618,-0.0344 0.162608,-0.0661 0.05099,-0.0317 0.0937,-0.0717 0.128159,-0.11988 0.03583,-0.0469 0.05236,-0.10887 0.05236,-0.18466 v -0.78273 c 0,-0.0882 0.01929,-0.15296 0.05788,-0.19017 0.03858,-0.0386 0.07993,-0.0648 0.124024,-0.0772 v 1.0294 c 0,0.0896 -0.0083,0.16674 -0.02342,0.23013 -0.01654,0.0634 -0.0303,0.10749 -0.0441,0.13367 -0.01791,0.0248 -0.03721,0.051 -0.0565,0.0799 -0.01929,0.0289 -0.02893,0.0524 -0.02893,0.0717 0,0.0193 0.01101,0.0303 0.03306,0.0331 0.02204,0.004 0.0689,-0.004 0.1378,-0.0234 0.140563,-0.0317 0.2384,-0.10473 0.292148,-0.21911 0.05374,-0.11438 0.07993,-0.23564 0.07993,-0.36242 v -1.0101 h 0.210836 v 1.0101 c 0,0.12678 0.02893,0.24804 0.08544,0.36242 0.05788,0.11438 0.151585,0.18741 0.285258,0.21911 0.07028,0.0193 0.118507,0.0276 0.143314,0.0234 0.02617,-0.003 0.03721,-0.0138 0.03306,-0.0331 -0.0028,-0.0193 -0.01241,-0.0427 -0.02755,-0.0717 -0.01654,-0.0289 -0.03446,-0.0551 -0.05374,-0.0799 -0.0441,-0.0579 -0.06615,-0.17914 -0.06615,-0.3638 v -1.0294 c 0.0441,0.0124 0.0882,0.0386 0.129534,0.0772 0.04134,0.0372 0.06201,0.10198 0.06201,0.19017 v 0.78273 c 0,0.0758 0.01654,0.1378 0.05099,0.18466 0.03583,0.0482 0.07855,0.0882 0.129532,0.11989 0.05099,0.0317 0.104733,0.0537 0.162611,0.0661 0.0565,0.0138 0.104732,0.0193 0.143317,0.0193 0.07579,-0.007 0.11989,-0.0234 0.132291,-0.0524 0.01378,-0.0289 0.0028,-0.0524 -0.02893,-0.0717 -0.03168,-0.0193 -0.07028,-0.0482 -0.118512,-0.0854 -0.04823,-0.0386 -0.08406,-0.0827 -0.110242,-0.13367 -0.01238,-0.0262 -0.01654,-0.0965 -0.01378,-0.21359 0.0028,-0.11851 0.0041,-0.24667 0.0041,-0.38723 0,-0.13918 -0.0041,-0.27561 -0.01378,-0.40928 -0.0097,-0.13367 -0.02893,-0.23564 -0.06201,-0.30592 -0.0565,-0.10749 -0.125402,-0.18053 -0.203952,-0.21911 -0.07993,-0.0386 -0.146071,-0.0703 -0.197059,-0.0951 0.330729,-0.0262 0.603578,-0.0854 0.817174,-0.18052 0.212222,-0.0951 0.378963,-0.21635 0.500229,-0.36242 0.119891,-0.14607 0.202573,-0.31006 0.24805,-0.49058 0.04409,-0.1819 0.06614,-0.37345 0.06614,-0.5774 0,-0.22187 -0.03447,-0.42168 -0.104732,-0.59669 -0.07028,-0.17364 -0.1695,-0.32522 -0.296278,-0.452 0.03858,-0.14607 0.04961,-0.29903 0.03305,-0.45751 -0.01516,-0.15847 -0.04961,-0.30317 -0.09922,-0.42995 -0.235644,0.0124 -0.432703,0.0606 -0.591177,0.14332 -0.158475,0.0827 -0.272852,0.15296 -0.343133,0.20946 -0.25494,-0.0634 -0.518142,-0.0951 -0.790996,-0.0951 h -0.06752 c -0.292145,0 -0.574643,0.0386 -0.84887,0.11437 -0.06339,-0.0579 -0.175014,-0.12953 -0.337619,-0.2191 -0.16261,-0.0882 -0.363802,-0.14056 -0.604962,-0.15297 z m 1.12448,1.68396 c 0.107486,0.003 0.221863,0.008 0.343132,0.0179 0.121267,0.01 0.241155,0.0152 0.362421,0.0152 0.119894,0 0.24116,-0.006 0.361048,-0.0152 0.121267,-0.01 0.235646,-0.0152 0.343133,-0.0179 0.108863,-0.004 0.210838,-0.003 0.305922,0.004 0.09508,0.007 0.177768,0.0289 0.248049,0.0675 0.146071,0.0758 0.25218,0.17226 0.318326,0.28939 0.06752,0.11851 0.100597,0.27837 0.100597,0.48232 0,0.38722 -0.199816,0.65181 -0.600826,0.79099 -0.06339,0.0193 -0.139182,0.0386 -0.228751,0.0565 -0.07579,0.0138 -0.168124,0.0262 -0.275609,0.0386 -0.108868,0.0124 -0.228756,0.0193 -0.362426,0.0193 H 21.85291 c -0.139186,0 -0.261829,-0.007 -0.366561,-0.0193 -0.10473,-0.0124 -0.191548,-0.0248 -0.261824,-0.0386 -0.08268,-0.0179 -0.159856,-0.0372 -0.228756,-0.0565 -0.401011,-0.13918 -0.600827,-0.40377 -0.600827,-0.79099 0,-0.20395 0.03172,-0.36381 0.09508,-0.48232 0.06339,-0.11713 0.168124,-0.21359 0.315574,-0.28939 0.0689,-0.0386 0.151582,-0.0606 0.248047,-0.0675 0.09508,-0.007 0.197056,-0.008 0.304546,-0.004 z m 0,0"
       style="fill:var(--ajw-banner-element);fill-opacity:1;fill-rule:nonzero;stroke:none;stroke-width:0.35277775" />
    <path
       id="path6661"
       d="m 23.283311,172.72564 c 0,0.0896 -0.02341,0.16536 -0.07166,0.22875 -0.04685,0.0648 -0.106108,0.0965 -0.176389,0.0965 -0.0689,0 -0.126781,-0.0317 -0.170879,-0.0965 -0.04547,-0.0634 -0.06752,-0.13918 -0.06752,-0.22875 0,-0.0882 0.02342,-0.16536 0.06752,-0.22875 0.0441,-0.0634 0.101978,-0.0951 0.170879,-0.0951 0.07028,0 0.129537,0.0317 0.176389,0.0951 0.04823,0.0634 0.07166,0.14056 0.07166,0.22875 z m 0,0"
       style="fill:var(--ajw-banner-element);fill-opacity:1;fill-rule:nonzero;stroke:none;stroke-width:0.35277775" />
    <path
       id="path6663"
       d="m 21.414692,172.72564 c 0,0.0896 -0.02342,0.16536 -0.07166,0.22875 -0.04685,0.0648 -0.106109,0.0965 -0.176387,0.0965 -0.0689,0 -0.126778,-0.0317 -0.170876,-0.0965 -0.04548,-0.0634 -0.06752,-0.13918 -0.06752,-0.22875 0,-0.0882 0.02204,-0.16536 0.06752,-0.22875 0.0441,-0.0634 0.101973,-0.0951 0.170876,-0.0951 0.07028,0 0.129534,0.0317 0.176387,0.0951 0.04823,0.0634 0.07166,0.14056 0.07166,0.22875 z m 0,0"
       style="fill:var(--ajw-banner-element);fill-opacity:1;fill-rule:nonzero;stroke:none;stroke-width:0.35277775" />
  </g>
</svg>
