<?xml version="1.0" encoding="UTF-8" standalone="no"?>
<?xml-stylesheet type="text/css" href="../../css/main.css"?>
<!-- Created with Inkscape (http://www.inkscape.org/) -->

<svg
   xmlns:dc="http://purl.org/dc/elements/1.1/"
   xmlns:cc="http://creativecommons.org/ns#"
   xmlns:rdf="http://www.w3.org/1999/02/22-rdf-syntax-ns#"
   xmlns:svg="http://www.w3.org/2000/svg"
   xmlns="http://www.w3.org/2000/svg"
   xmlns:sodipodi="http://sodipodi.sourceforge.net/DTD/sodipodi-0.dtd"
   xmlns:inkscape="http://www.inkscape.org/namespaces/inkscape"
   width="9.6651001mm"
   height="7.6651001mm"
   viewBox="0 0 9.6651001 7.6651002"
   version="1.1"
   id="svg19192"
   inkscape:version="0.92.0 r"
   sodipodi:docname="interests.svg">
  <defs
     id="defs19186" />
  <sodipodi:namedview
     id="base"
     pagecolor="#ffffff"
     bordercolor="#666666"
     borderopacity="1.0"
     inkscape:pageopacity="0.0"
     inkscape:pageshadow="2"
     inkscape:zoom="5.6"
     inkscape:cx="2.854915"
     inkscape:cy="-7.632127"
     inkscape:document-units="mm"
     inkscape:current-layer="layer1"
     showgrid="false"
     fit-margin-top="0"
     fit-margin-left="0"
     fit-margin-right="0"
     fit-margin-bottom="0"
     inkscape:window-width="1440"
     inkscape:window-height="851"
     inkscape:window-x="0"
     inkscape:window-y="23"
     inkscape:window-maximized="0" />
  <metadata
     id="metadata19189">
    <rdf:RDF>
      <cc:Work
         rdf:about="">
        <dc:format>image/svg+xml</dc:format>
        <dc:type
           rdf:resource="http://purl.org/dc/dcmitype/StillImage" />
        <dc:title></dc:title>
      </cc:Work>
    </rdf:RDF>
  </metadata>
  <g
     inkscape:label="Layer 1"
     inkscape:groupmode="layer"
     id="layer1"
     transform="translate(116.71347,-188.93431)">
    <g
       id="g4549"
       transform="translate(0,-0.66756583)">
      <path
         id="path12443"
         d="m -114.90714,195.14718 c -0.0882,0.0358 -0.19016,-0.007 -0.22599,-0.0965 -0.0372,-0.0896 0.005,-0.19154 0.0951,-0.22737 0.0896,-0.0358 0.19155,0.007 0.22738,0.0965 0.0372,0.0896 -0.007,0.19155 -0.0965,0.22738 z m -0.52089,0.21084 c -0.0896,0.0372 -0.19155,-0.006 -0.22738,-0.0951 -0.0372,-0.091 0.005,-0.19155 0.0951,-0.22875 0.0896,-0.0358 0.19154,0.007 0.22737,0.0978 0.0372,0.0896 -0.007,0.19017 -0.0951,0.226 z m -0.52366,0.21221 c -0.0896,0.0358 -0.19017,-0.007 -0.226,-0.0965 -0.0372,-0.0896 0.006,-0.19155 0.0951,-0.22738 0.0896,-0.0358 0.19155,0.007 0.22737,0.0965 0.0372,0.0896 -0.007,0.19155 -0.0965,0.22737 z m -0.52227,0.21084 c -0.0896,0.0372 -0.19017,-0.007 -0.226,-0.0965 -0.0372,-0.0896 0.005,-0.19017 0.0951,-0.22738 0.0896,-0.0358 0.19155,0.007 0.22738,0.0965 0.0358,0.0896 -0.007,0.19154 -0.0965,0.22737 z m 0,0"
         style="fill:var(--ajw-heading-element);fill-opacity:1;fill-rule:nonzero;stroke:none;stroke-width:0.35277775"
         inkscape:connector-curvature="0" />
      <path
         id="path12445"
         d="m -115.10695,194.65246 c -0.0896,0.0358 -0.19155,-0.007 -0.22738,-0.0965 -0.0358,-0.0882 0.007,-0.19155 0.0965,-0.22738 0.0896,-0.0372 0.19154,0.01 0.22737,0.0965 0.0358,0.0896 -0.007,0.19017 -0.0965,0.22738 z m -0.52228,0.21084 c -0.0896,0.0358 -0.19154,-0.007 -0.22737,-0.0965 -0.0345,-0.0868 0.007,-0.19017 0.0965,-0.22738 0.0896,-0.0358 0.19155,0.01 0.22737,0.0965 0.0358,0.0896 -0.007,0.19155 -0.0965,0.22738 z m -0.52227,0.21084 c -0.0896,0.0372 -0.19155,-0.006 -0.22738,-0.0951 -0.0358,-0.0882 0.007,-0.19155 0.0965,-0.22738 0.0896,-0.0372 0.19155,0.01 0.22738,0.0965 0.0358,0.0896 -0.007,0.19017 -0.0965,0.226 z m 0,0"
         style="fill:var(--ajw-heading-element);fill-opacity:1;fill-rule:nonzero;stroke:none;stroke-width:0.35277775"
         inkscape:connector-curvature="0" />
      <path
         id="path12447"
         d="m -107.14602,191.44576 c -0.23014,-0.0896 -1.12724,-0.34175 -3.00688,0.21085 -0.062,0.0179 -0.12127,0.0386 -0.18052,0.0579 l -0.21085,-0.35829 c 0.0303,0.008 0.0606,0.0165 0.0923,0.0207 0.0992,0.011 0.19293,0 0.27975,-0.0345 0.0455,-0.0179 0.0868,-0.0427 0.12677,-0.0717 0.12127,-0.0923 0.19431,-0.21497 0.21636,-0.36656 0.0207,-0.15158 -0.0152,-0.28938 -0.10749,-0.41065 -0.091,-0.12403 -0.21497,-0.19706 -0.36794,-0.21911 -0.14745,-0.0193 -0.28801,0.0179 -0.40927,0.10887 -0.11852,0.0882 -0.19155,0.21083 -0.21498,0.36242 -0.008,0.051 -0.005,0.0992 -0.001,0.14607 -0.10887,-0.0496 -0.22738,-0.0703 -0.3266,-0.0579 l -1.25677,0.14194 c -0.13918,0.0179 -0.26321,0.0661 -0.36794,0.14469 -0.19155,0.1447 -0.28801,0.34589 -0.27699,0.58429 0.01,0.14056 0.0579,0.26734 0.14056,0.37896 0.0138,0.0179 0.0303,0.0358 0.0455,0.0524 -0.0152,0 -0.0276,-0.003 -0.0427,-0.003 -0.61736,-0.0248 -1.48552,0.2701 -2.10426,0.5209 -0.40377,0.1626 -0.68489,0.30041 -0.69729,0.30592 l -0.0345,0.0179 -0.0207,0.0317 c -0.0276,0.0441 -0.0413,0.113 -0.003,0.17501 0.0207,0.0317 0.0703,0.0841 0.17915,0.073 l 0.12126,-0.0138 c 0.39136,-0.0455 1.20303,-0.1378 1.52273,-0.0854 0.19155,0.0317 0.3707,0.0827 0.52504,0.13781 l -0.004,0.003 -0.04,0.0179 c -0.18328,0.0841 -0.27285,0.25081 -0.31557,0.37069 -0.12402,-0.0207 -0.31832,-0.0455 -0.49747,-0.0276 -0.21359,0.0207 -0.40376,0.0882 -0.49885,0.12678 l -0.16123,0.073 0.62838,1.55305 0.16537,-0.0593 c 0.0951,-0.0386 0.27974,-0.12402 0.44786,-0.25631 0.14194,-0.11438 0.26596,-0.26872 0.34038,-0.3707 0.11024,0.051 0.28525,0.0992 0.47129,0.0331 l 0.0427,-0.0152 c 0.005,-0.003 0.0124,-0.006 0.0179,-0.008 -0.073,0.15159 -0.16812,0.31833 -0.28801,0.48094 -0.19431,0.26045 -0.84474,0.76068 -1.15618,1.00046 l -0.0951,0.073 c -0.0854,0.0661 -0.0841,0.13919 -0.0772,0.17639 0.0152,0.0717 0.0744,0.11025 0.12402,0.12403 l 0.0372,0.008 0.0372,-0.011 c 0.0124,-0.004 0.30868,-0.10061 0.71244,-0.26459 0.62012,-0.2508 1.44832,-0.64354 1.87551,-1.09003 0.37483,-0.39136 0.50712,-0.72485 0.55397,-0.92742 0.59394,-0.14607 1.21819,-0.3886 1.83693,-0.71382 1.73633,-0.91227 2.20486,-1.71704 2.30683,-1.94304 0,0 0.0276,-0.0537 0.004,-0.12126 -0.0179,-0.0524 -0.0882,-0.0827 -0.0882,-0.0827 z m -3.51813,-0.6587 c 0.0124,-0.0813 0.0496,-0.14331 0.11024,-0.18879 0.0234,-0.0179 0.0469,-0.0317 0.0703,-0.0413 0.0455,-0.0179 0.0923,-0.0234 0.14331,-0.0165 0.0799,0.011 0.13919,0.0482 0.19017,0.11438 0.0482,0.0634 0.0661,0.13367 0.0551,0.21222 -0.011,0.0799 -0.0469,0.14056 -0.11301,0.18879 -0.062,0.0469 -0.12953,0.0648 -0.21083,0.0537 -0.0799,-0.01 -0.14194,-0.0441 -0.19017,-0.10886 -0.0496,-0.0661 -0.0661,-0.13367 -0.0551,-0.2136 z m 1.26366,1.48553 c 0.001,0.0372 -0.008,0.0854 -0.0813,0.11437 -0.0152,0.007 -0.0345,0.008 -0.0289,0.01 l -0.9288,0.0413 c -0.0468,0.006 -0.16398,-0.0317 -0.20808,-0.10473 l -0.35278,-0.60082 -1.20991,0.11989 0.81579,0.62701 c 0,0.001 0.0234,0.0207 0.0386,0.0648 0.0152,0.0386 0.0207,0.0648 -0.0331,0.14607 l -0.7345,1.05282 c -0.0138,0.022 -0.0276,0.0331 -0.0441,0.0455 -0.073,0.0579 -0.19569,0.0854 -0.26321,-0.0331 -0.0441,-0.0744 -0.04,-0.14332 0.0138,-0.21635 l 0.6146,-0.86679 -0.91639,-0.66284 c -0.0345,-0.0289 -0.062,-0.0579 -0.0841,-0.0868 -0.0524,-0.0703 -0.0813,-0.14745 -0.0868,-0.23427 -0.007,-0.14883 0.0469,-0.26183 0.1695,-0.35415 0.0317,-0.0234 0.0662,-0.0427 0.10335,-0.0579 0.0413,-0.0166 0.0868,-0.0289 0.13505,-0.0345 l 1.25677,-0.14193 c 0.0937,-0.0124 0.23151,0.0289 0.28526,0.10886 l 0.56361,0.96462 0.83234,-0.0275 c 0.0152,-0.001 0.0703,0.01 0.10748,0.0455 0.0248,0.0221 0.0358,0.0482 0.0358,0.0813 z m 0,0"
         style="fill:var(--ajw-heading-element);fill-opacity:1;fill-rule:nonzero;stroke:none;stroke-width:0.35277775"
         inkscape:connector-curvature="0" />
    </g>
  </g>
</svg>
