<?xml version="1.0" encoding="UTF-8" standalone="no"?>
<?xml-stylesheet type="text/css" href="../../css/main.css"?>
<svg
   xmlns:dc="http://purl.org/dc/elements/1.1/"
   xmlns:cc="http://creativecommons.org/ns#"
   xmlns:rdf="http://www.w3.org/1999/02/22-rdf-syntax-ns#"
   xmlns:svg="http://www.w3.org/2000/svg"
   xmlns="http://www.w3.org/2000/svg"
   width="8mm"
   height="8mm"
   viewBox="0 0 8 8"
   version="1.1"
   id="svg18605">
  <defs
     id="defs18599" />
  <metadata
     id="metadata18602">
    <rdf:RDF>
      <cc:Work
         rdf:about="">
        <dc:format>image/svg+xml</dc:format>
        <dc:type
           rdf:resource="http://purl.org/dc/dcmitype/StillImage" />
        <dc:title></dc:title>
      </cc:Work>
    </rdf:RDF>
  </metadata>
  <g
     style="stroke-width:1.22818363"
     id="layer1"
     transform="matrix(0.75034968,-0.31609192,0.31609192,0.75034968,72.556404,-77.130627)">
    <g
       id="g5177"
       transform="matrix(0.96511936,0,0,0.96511936,-4.2684517,0.17467285)"
       style="stroke-width:1.2725718">
      <path
         id="path5144"
         d="m -116.1543,57.158203 c -2.2268,0 -4.04101,1.812256 -4.04101,4.039063 0,2.226806 1.81421,4.041015 4.04101,4.041015 2.22681,0 4.04102,-1.814209 4.04102,-4.041015 0,-2.226807 -1.81421,-4.039063 -4.04102,-4.039063 z m 0,0.796875 c 1.79554,0 3.24219,1.446652 3.24219,3.242188 0,1.795535 -1.44665,3.242187 -3.24219,3.242187 -1.79553,0 -3.24218,-1.446652 -3.24218,-3.242187 0,-1.795536 1.44665,-3.242188 3.24218,-3.242188 z"
         style="fill:var(--ajw-heading-element);font-style:normal;font-variant:normal;font-weight:normal;font-stretch:normal;font-size:medium;line-height:normal;font-family:sans-serif;font-variant-ligatures:normal;font-variant-position:normal;font-variant-caps:normal;font-variant-numeric:normal;font-variant-alternates:normal;font-feature-settings:normal;text-indent:0;text-align:start;text-decoration:none;text-decoration-line:none;text-decoration-style:solid;text-decoration-color:#000000;letter-spacing:normal;word-spacing:normal;text-transform:none;writing-mode:lr-tb;direction:ltr;text-orientation:mixed;dominant-baseline:auto;baseline-shift:baseline;text-anchor:start;white-space:normal;shape-padding:0;clip-rule:nonzero;display:inline;overflow:visible;visibility:visible;opacity:1;isolation:auto;mix-blend-mode:normal;color-interpolation:sRGB;color-interpolation-filters:linearRGB;solid-color:#000000;solid-opacity:1;vector-effect:none;fill-opacity:1;fill-rule:evenodd;stroke:none;stroke-width:1.01551223;stroke-linecap:round;stroke-linejoin:miter;stroke-miterlimit:4;stroke-dasharray:none;stroke-dashoffset:0;stroke-opacity:1;color-rendering:auto;image-rendering:auto;shape-rendering:auto;text-rendering:auto;enable-background:accumulate" />
      <path
         id="path5166"
         d="m -113.75832,58.042733 a 0.39903989,0.39903989 0 0 0 0.25247,0.750877 c 1.11126,-0.195073 1.96445,-0.16543 2.39884,-0.01469 0.21719,0.07537 0.31171,0.166017 0.34664,0.232052 0.0349,0.06603 0.0502,0.148204 -0.0253,0.337973 -0.15093,0.379544 -0.70977,0.988204 -1.55384,1.578745 -0.84405,0.590536 -1.96085,1.187206 -3.2057,1.685151 -1.24486,0.497944 -2.46987,0.838242 -3.49674,0.99586 -1.02686,0.157619 -1.86419,0.109764 -2.25217,-0.06047 -0.19398,-0.08512 -0.24643,-0.161741 -0.26867,-0.23154 -0.0222,-0.0698 -0.021,-0.190995 0.078,-0.390468 0.19801,-0.398941 0.78196,-1.005668 1.71314,-1.6274 a 0.39903989,0.39903989 0 1 0 -0.44231,-0.662741 c -0.99472,0.66416 -1.66974,1.298893 -1.98575,1.935536 -0.15799,0.31832 -0.22807,0.66183 -0.12445,0.986999 0.10362,0.325168 0.37446,0.573686 0.70914,0.720548 0.66939,0.293716 1.59104,0.287462 2.69346,0.118244 1.10241,-0.169213 2.37778,-0.524768 3.67344,-1.043035 1.29568,-0.51827 2.4589,-1.137228 3.36655,-1.772258 0.90765,-0.635026 1.56932,-1.262519 1.83776,-1.937624 0.13424,-0.337558 0.14802,-0.704986 -0.0115,-1.006479 -0.15952,-0.301497 -0.45189,-0.495216 -0.79022,-0.612622 -0.67667,-0.234814 -1.61298,-0.225717 -2.79846,-0.01762 a 0.39903989,0.39903989 0 0 0 -0.11432,0.03496 z"
         style="fill:var(--ajw-heading-element);font-style:normal;font-variant:normal;font-weight:normal;font-stretch:normal;font-size:medium;line-height:normal;font-family:sans-serif;font-variant-ligatures:normal;font-variant-position:normal;font-variant-caps:normal;font-variant-numeric:normal;font-variant-alternates:normal;font-feature-settings:normal;text-indent:0;text-align:start;text-decoration:none;text-decoration-line:none;text-decoration-style:solid;text-decoration-color:#000000;letter-spacing:normal;word-spacing:normal;text-transform:none;writing-mode:lr-tb;direction:ltr;text-orientation:mixed;dominant-baseline:auto;baseline-shift:baseline;text-anchor:start;white-space:normal;shape-padding:0;clip-rule:nonzero;display:inline;overflow:visible;visibility:visible;opacity:1;isolation:auto;mix-blend-mode:normal;color-interpolation:sRGB;color-interpolation-filters:linearRGB;solid-color:#000000;solid-opacity:1;vector-effect:none;fill-opacity:1;fill-rule:evenodd;stroke:none;stroke-width:1.01551223;stroke-linecap:round;stroke-linejoin:miter;stroke-miterlimit:4;stroke-dasharray:none;stroke-dashoffset:0;stroke-opacity:1;color-rendering:auto;image-rendering:auto;shape-rendering:auto;text-rendering:auto;enable-background:accumulate" />
    </g>
  </g>
</svg>
