<?xml version="1.0" encoding="UTF-8" standalone="no"?>
<?xml-stylesheet type="text/css" href="../../css/main.css"?>
<!-- Created with Inkscape (http://www.inkscape.org/) -->

<svg
   xmlns:dc="http://purl.org/dc/elements/1.1/"
   xmlns:cc="http://creativecommons.org/ns#"
   xmlns:rdf="http://www.w3.org/1999/02/22-rdf-syntax-ns#"
   xmlns:svg="http://www.w3.org/2000/svg"
   xmlns="http://www.w3.org/2000/svg"
   xmlns:sodipodi="http://sodipodi.sourceforge.net/DTD/sodipodi-0.dtd"
   xmlns:inkscape="http://www.inkscape.org/namespaces/inkscape"
   width="5.6802702mm"
   height="5.6602702mm"
   viewBox="0 0 5.6802702 5.6602703"
   version="1.1"
   id="svg16199"
   inkscape:version="0.92.0 r"
   sodipodi:docname="mail.svg">
  <defs
     id="defs16193" />
  <sodipodi:namedview
     id="base"
     pagecolor="#ffffff"
     bordercolor="#666666"
     borderopacity="1.0"
     inkscape:pageopacity="0.0"
     inkscape:pageshadow="2"
     inkscape:zoom="2.8"
     inkscape:cx="-18.706977"
     inkscape:cy="-46.902903"
     inkscape:document-units="mm"
     inkscape:current-layer="layer1"
     showgrid="false"
     fit-margin-top="0"
     fit-margin-left="0"
     fit-margin-right="0"
     fit-margin-bottom="0"
     inkscape:window-width="2560"
     inkscape:window-height="1395"
     inkscape:window-x="0"
     inkscape:window-y="23"
     inkscape:window-maximized="0" />
  <metadata
     id="metadata16196">
    <rdf:RDF>
      <cc:Work
         rdf:about="">
        <dc:format>image/svg+xml</dc:format>
        <dc:type
           rdf:resource="http://purl.org/dc/dcmitype/StillImage" />
        <dc:title></dc:title>
      </cc:Work>
    </rdf:RDF>
  </metadata>
  <g
     inkscape:label="Layer 1"
     inkscape:groupmode="layer"
     id="layer1"
     transform="translate(-132.47534,-195.01929)">
    <path
       inkscape:connector-curvature="0"
       style="fill:var(--ajw-banner-element);fill-opacity:1;fill-rule:nonzero;stroke:none;stroke-width:0.35277775"
       d="m 132.73854,195.89606 c -0.14607,0 -0.2632,0.11851 -0.2632,0.26458 v 3.37758 c 0,0.14607 0.11713,0.26458 0.2632,0.26458 h 5.15386 c 0.14608,0 0.26321,-0.11851 0.26321,-0.26458 v -3.37758 c 0,-0.14607 -0.11713,-0.26458 -0.26321,-0.26458 z m -0.16123,0.0813 2.73817,2.13871 2.73816,-2.13871 c 0.004,0.003 0.008,0.003 0.011,0.007 l -1.72116,1.66742 1.72806,2.05741 c -0.004,0.004 -0.008,0.008 -0.0124,0.0124 l -2.02434,-1.77216 -0.71934,0.69729 -0.71934,-0.69729 -2.02433,1.77216 c -0.004,-0.004 -0.008,-0.008 -0.0124,-0.0124 l 1.72809,-2.05741 -1.72117,-1.66742 c 0.003,-0.004 0.007,-0.004 0.011,-0.007 z m 0,0"
       id="path6473" />
  </g>
</svg>
