<?xml version="1.0" encoding="UTF-8" standalone="no"?>
<svg
   xmlns:dc="http://purl.org/dc/elements/1.1/"
   xmlns:cc="http://creativecommons.org/ns#"
   xmlns:rdf="http://www.w3.org/1999/02/22-rdf-syntax-ns#"
   xmlns:svg="http://www.w3.org/2000/svg"
   xmlns="http://www.w3.org/2000/svg"
   id="svg21597"
   version="1.1"
   viewBox="0 0 13.618929 13.606477"
   height="13.606477mm"
   width="13.618929mm">
  <defs
     id="defs21591" />
  <metadata
     id="metadata21594">
    <rdf:RDF>
      <cc:Work
         rdf:about="">
        <dc:format>image/svg+xml</dc:format>
        <dc:type
           rdf:resource="http://purl.org/dc/dcmitype/StillImage" />
        <dc:title></dc:title>
      </cc:Work>
    </rdf:RDF>
  </metadata>
  <g
     transform="translate(-99.023869,-142.03009)"
     id="layer1">
    <path
       id="path13067"
       d="m 108.36313,142.51925 c -3.4892,-1.39595 -7.45243,0.29766 -8.849766,3.78547 -1.397328,3.48782 0.299035,7.44692 3.789606,8.84287 3.48919,1.39595 7.45243,-0.29903 8.84976,-3.78547 1.39871,-3.48781 -0.29903,-7.44692 -3.7896,-8.84287 z m -4.74459,11.83873 c -3.04822,-1.21957 -4.5365,-4.68947 -3.31556,-7.73631 1.22094,-3.04684 4.69498,-4.53374 7.74458,-3.3128 3.04959,1.21956 4.5365,4.69084 3.31693,7.73631 -1.22232,3.04683 -4.69635,4.53236 -7.74595,3.3128 z m 0,0"
       style="fill:#000000;fill-opacity:1;fill-rule:evenodd;stroke:none;stroke-width:0.35277775" />
    <path
       id="path13069"
       d="m 106.15,148.04381 c -0.43546,-0.17501 -0.93156,0.0372 -1.10657,0.47266 -0.17501,0.43684 0.0372,0.93156 0.47267,1.10657 0.43684,0.17363 0.93293,-0.0386 1.10794,-0.47405 0.17363,-0.43546 -0.0386,-0.93017 -0.47404,-1.10518 z m -0.47543,1.18511 c -0.21773,-0.0882 -0.32383,-0.33624 -0.23702,-0.55397 0.0882,-0.21773 0.33624,-0.32384 0.55397,-0.23702 0.21773,0.0882 0.32384,0.33486 0.23702,0.55397 -0.0882,0.21773 -0.33623,0.32246 -0.55397,0.23702 z m 0,0"
       style="fill:#000000;fill-opacity:1;fill-rule:evenodd;stroke:none;stroke-width:0.35277775" />
    <path
       id="path13071"
       d="m 106.78252,146.46595 c -1.30914,-0.52365 -2.79466,0.11162 -3.3197,1.41938 -0.52365,1.30776 0.113,2.79191 1.42076,3.31556 1.30914,0.52366 2.79466,-0.11162 3.31969,-1.41938 0.52366,-1.30776 -0.11162,-2.7919 -1.42075,-3.31556 z m -1.58199,3.94533 c -0.87092,-0.34727 -1.29536,-1.33946 -0.94672,-2.21038 0.34865,-0.86954 1.34084,-1.29397 2.21176,-0.94671 0.8723,0.34864 1.29673,1.34083 0.94809,2.21175 -0.34865,0.86954 -1.34221,1.29536 -2.21313,0.94534 z m 0,0"
       style="fill:#000000;fill-opacity:1;fill-rule:evenodd;stroke:none;stroke-width:0.35277775" />
    <path
       id="path13073"
       d="m 108.99427,150.09708 c 0.0427,-0.10886 -0.01,-0.23151 -0.11851,-0.2756 -0.10887,-0.0441 -0.23289,0.01 -0.27699,0.11851 -0.30592,0.76343 -0.89297,1.3298 -1.59301,1.62884 -0.10749,0.0469 -0.15847,0.17088 -0.11162,0.27836 0.0469,0.10887 0.17087,0.15848 0.27836,0.113 0.005,-0.001 0.007,-0.006 0.01,-0.007 0.7965,-0.34451 1.46347,-0.98943 1.81074,-1.85621 z m 0,0"
       style="fill:#000000;fill-opacity:1;fill-rule:evenodd;stroke:none;stroke-width:0.35277775" />
    <path
       id="path13075"
       d="m 110.45499,150.45262 c -0.10887,-0.0427 -0.23289,0.01 -0.27699,0.11851 -0.48093,1.19889 -1.40146,2.0891 -2.50252,2.56039 -0.10748,0.0455 -0.15847,0.17088 -0.11161,0.27837 0.0455,0.10886 0.17087,0.15847 0.27836,0.113 0.005,-0.003 0.01,-0.008 0.0138,-0.01 1.19614,-0.51539 2.19659,-1.48415 2.71749,-2.78364 0.0427,-0.10887 -0.01,-0.23289 -0.11851,-0.27699 z m 0,0"
       style="fill:#000000;fill-opacity:1;fill-rule:evenodd;stroke:none;stroke-width:0.35277775" />
    <path
       id="path13077"
       d="m 109.66399,150.13705 c -0.10886,-0.0441 -0.23288,0.01 -0.2756,0.11851 -0.39274,0.98116 -1.14653,1.70876 -2.04777,2.09461 -0.10748,0.0469 -0.15847,0.17088 -0.11162,0.27975 0.0469,0.10748 0.17088,0.1571 0.27836,0.11162 0.005,-0.003 0.007,-0.005 0.0124,-0.008 0.99494,-0.42995 1.82866,-1.2361 2.26274,-2.31924 0.0441,-0.10886 -0.01,-0.23289 -0.11851,-0.27698 z m 0,0"
       style="fill:#000000;fill-opacity:1;fill-rule:evenodd;stroke:none;stroke-width:0.35277775" />
    <path
       id="path13079"
       d="m 104.77334,145.81827 c -0.0469,-0.10748 -0.17088,-0.15709 -0.27975,-0.11162 -0.004,0.001 -0.005,0.006 -0.008,0.007 -0.79787,0.34451 -1.46346,0.98943 -1.81073,1.85622 h -10e-4 c -0.0427,0.10887 0.01,0.23151 0.1185,0.27561 0.11025,0.0441 0.23289,-0.01 0.27699,-0.11851 0.30593,-0.76206 0.89297,-1.32981 1.59301,-1.62884 0.10749,-0.0469 0.15848,-0.17088 0.11162,-0.27975 z m 0,0"
       style="fill:#000000;fill-opacity:1;fill-rule:evenodd;stroke:none;stroke-width:0.35277775" />
    <path
       id="path13081"
       d="m 104.10361,144.25558 c -0.0469,-0.10749 -0.17226,-0.15848 -0.27974,-0.11162 -0.005,0.001 -0.01,0.007 -0.0138,0.008 -1.19476,0.51677 -2.19521,1.48415 -2.71611,2.78364 -0.0441,0.11025 0.008,0.23427 0.11851,0.27699 0.10887,0.0441 0.23289,-0.008 0.27561,-0.11851 0.48094,-1.19752 1.40284,-2.08911 2.5039,-2.55902 0.10748,-0.0469 0.15709,-0.17225 0.11162,-0.27974 z m 0,0"
       style="fill:#000000;fill-opacity:1;fill-rule:evenodd;stroke:none;stroke-width:0.35277775" />
    <path
       id="path13083"
       d="m 104.32685,145.31529 c 0.10749,-0.0455 0.15848,-0.1695 0.11162,-0.27836 -0.0468,-0.10749 -0.17087,-0.15848 -0.27974,-0.11162 -0.004,0.001 -0.007,0.006 -0.011,0.008 -0.99632,0.42995 -1.82865,1.2361 -2.26273,2.31924 -0.0455,0.11024 0.008,0.23289 0.11713,0.27698 0.10887,0.0441 0.23289,-0.008 0.27699,-0.11851 0.39274,-0.98116 1.14652,-1.70877 2.04776,-2.09462 z m 0,0"
       style="fill:#000000;fill-opacity:1;fill-rule:evenodd;stroke:none;stroke-width:0.35277775" />
  </g>
</svg>
