<?xml version="1.0" encoding="UTF-8" standalone="no"?>
<!-- Created with Inkscape (http://www.inkscape.org/) -->

<svg
   xmlns:dc="http://purl.org/dc/elements/1.1/"
   xmlns:cc="http://creativecommons.org/ns#"
   xmlns:rdf="http://www.w3.org/1999/02/22-rdf-syntax-ns#"
   xmlns:svg="http://www.w3.org/2000/svg"
   xmlns="http://www.w3.org/2000/svg"
   xmlns:sodipodi="http://sodipodi.sourceforge.net/DTD/sodipodi-0.dtd"
   xmlns:inkscape="http://www.inkscape.org/namespaces/inkscape"
   width="7.1486788mm"
   height="7.0435872mm"
   viewBox="0 0 7.1486788 7.0435872"
   version="1.1"
   id="svg23370"
   inkscape:version="0.92.0 r"
   sodipodi:docname="os_bsd.svg">
  <defs
     id="defs23364" />
  <sodipodi:namedview
     id="base"
     pagecolor="#ffffff"
     bordercolor="#666666"
     borderopacity="1.0"
     inkscape:pageopacity="0.0"
     inkscape:pageshadow="2"
     inkscape:zoom="5.6"
     inkscape:cx="68.610804"
     inkscape:cy="16.362114"
     inkscape:document-units="mm"
     inkscape:current-layer="layer1"
     showgrid="false"
     fit-margin-top="0"
     fit-margin-left="0"
     fit-margin-right="0"
     fit-margin-bottom="0"
     inkscape:window-width="2560"
     inkscape:window-height="1391"
     inkscape:window-x="0"
     inkscape:window-y="23"
     inkscape:window-maximized="0" />
  <metadata
     id="metadata23367">
    <rdf:RDF>
      <cc:Work
         rdf:about="">
        <dc:format>image/svg+xml</dc:format>
        <dc:type
           rdf:resource="http://purl.org/dc/dcmitype/StillImage" />
        <dc:title></dc:title>
      </cc:Work>
    </rdf:RDF>
  </metadata>
  <g
     inkscape:label="Layer 1"
     inkscape:groupmode="layer"
     id="layer1"
     transform="translate(-101.92425,-146.11889)">
    <path
       inkscape:connector-curvature="0"
       style="fill:#ffffff;fill-opacity:1;fill-rule:nonzero;stroke:none;stroke-width:0.35277775"
       d="m 108.98624,146.19784 c 0.38467,0.37424 -0.64353,2.05275 -0.81761,2.2331 -0.17592,0.17985 -0.62947,0.022 -1.01293,-0.35289 -0.38399,-0.37303 -0.55363,-0.82268 -0.37764,-1.00252 0.17409,-0.18031 1.82472,-1.25261 2.20818,-0.87769 z m 0,0"
       id="path13087" />
    <path
       inkscape:connector-curvature="0"
       style="fill:#ffffff;fill-opacity:1;fill-rule:nonzero;stroke:none;stroke-width:0.35277775"
       d="m 103.6795,146.66658 c -0.58341,-0.32051 -1.41137,-0.67533 -1.66934,-0.4105 -0.26212,0.26872 0.12806,1.10661 0.4666,1.6815 0.28948,-0.51727 0.704,-0.95429 1.20274,-1.271 z m 0,0"
       id="path13089" />
    <path
       inkscape:connector-curvature="0"
       style="fill:#ffffff;fill-opacity:1;fill-rule:nonzero;stroke:none;stroke-width:0.35277775"
       d="m 108.43722,148.2958 c 0.056,0.18015 0.0478,0.32979 -0.0372,0.41802 -0.19897,0.20364 -0.7466,-0.004 -1.24426,-0.46551 -0.034,-0.0299 -0.0693,-0.0624 -0.1035,-0.0954 -0.17918,-0.17473 -0.32122,-0.36222 -0.41147,-0.53593 -0.17667,-0.30541 -0.22279,-0.57935 -0.0941,-0.71083 0.0691,-0.0715 0.18214,-0.0921 0.3215,-0.0683 0.0889,-0.0585 0.19443,-0.12389 0.31057,-0.19006 -0.47817,-0.24184 -1.02003,-0.37416 -1.59222,-0.36823 -1.90009,0.0252 -3.41834,1.5852 -3.39308,3.48529 0.0252,1.90008 1.58654,3.42074 3.48608,3.39736 1.89888,-0.0246 3.41833,-1.5852 3.39308,-3.48529 -0.008,-0.61342 -0.17787,-1.1877 -0.4654,-1.68216 -0.0592,0.11177 -0.11772,0.21365 -0.17003,0.30107 z m 0,0"
       id="path13091" />
  </g>
</svg>
