<?xml version="1.0" encoding="UTF-8" standalone="no"?>
<!-- Created with Inkscape (http://www.inkscape.org/) -->

<svg
   xmlns:dc="http://purl.org/dc/elements/1.1/"
   xmlns:cc="http://creativecommons.org/ns#"
   xmlns:rdf="http://www.w3.org/1999/02/22-rdf-syntax-ns#"
   xmlns:svg="http://www.w3.org/2000/svg"
   xmlns="http://www.w3.org/2000/svg"
   xmlns:sodipodi="http://sodipodi.sourceforge.net/DTD/sodipodi-0.dtd"
   xmlns:inkscape="http://www.inkscape.org/namespaces/inkscape"
   width="5.8160458mm"
   height="7.052917mm"
   viewBox="0 0 5.8160457 7.052917"
   version="1.1"
   id="svg22198"
   inkscape:version="0.92.0 r"
   sodipodi:docname="os_linux.svg">
  <defs
     id="defs22192" />
  <sodipodi:namedview
     id="base"
     pagecolor="#ffffff"
     bordercolor="#666666"
     borderopacity="1.0"
     inkscape:pageopacity="0.0"
     inkscape:pageshadow="2"
     inkscape:zoom="5.6"
     inkscape:cx="-89.024662"
     inkscape:cy="80.610946"
     inkscape:document-units="mm"
     inkscape:current-layer="layer1"
     showgrid="false"
     fit-margin-top="0"
     fit-margin-left="0"
     fit-margin-right="0"
     fit-margin-bottom="0"
     inkscape:window-width="2560"
     inkscape:window-height="1395"
     inkscape:window-x="0"
     inkscape:window-y="23"
     inkscape:window-maximized="0" />
  <metadata
     id="metadata22195">
    <rdf:RDF>
      <cc:Work
         rdf:about="">
        <dc:format>image/svg+xml</dc:format>
        <dc:type
           rdf:resource="http://purl.org/dc/dcmitype/StillImage" />
        <dc:title></dc:title>
      </cc:Work>
    </rdf:RDF>
  </metadata>
  <g
     inkscape:label="Layer 1"
     inkscape:groupmode="layer"
     id="layer1"
     transform="translate(257.27233,-104.30943)">
    <path
       inkscape:connector-curvature="0"
       style="fill:#ffffff;fill-opacity:1;fill-rule:nonzero;stroke:none;stroke-width:0.35277775"
       d="m -254.16519,104.30965 c -0.0448,-8.7e-4 -0.0919,8.5e-4 -0.14162,0.005 -1.24333,0.0889 -0.92489,1.40543 -0.94622,1.84438 -0.0262,0.32247 -0.093,0.57472 -0.31617,0.8871 -0.26305,0.30764 -0.63244,0.80411 -0.80982,1.32267 -0.0847,0.24536 -0.12516,0.49617 -0.0911,0.73354 -0.011,0.01 -0.0219,0.0202 -0.0328,0.0304 -0.0763,0.0807 -0.13437,0.17941 -0.19771,0.24545 -0.059,0.0583 -0.14223,0.0787 -0.23461,0.11179 -0.0913,0.0314 -0.19367,0.0801 -0.25568,0.19757 -0.0559,0.10392 -0.0408,0.22293 -0.0244,0.33336 0.0148,0.11068 0.0317,0.21543 0.008,0.28617 -0.074,0.19898 -0.084,0.33599 -0.0342,0.43685 0.051,0.0992 0.15601,0.14513 0.27459,0.17066 0.23739,0.0525 0.56095,0.0421 0.81487,0.17984 l 0.0213,-0.0411 -0.0213,0.0411 c 0.27043,0.14483 0.547,0.19794 0.76677,0.14993 0.1603,-0.036 0.29044,-0.1292 0.35895,-0.27565 0.17173,2.6e-4 0.36126,-0.0708 0.66468,-0.0849 0.20556,-0.015 0.46176,0.0763 0.75703,0.0636 0.006,0.0311 0.0182,0.0627 0.033,0.0924 0,0 1.6e-4,9.9e-4 1.6e-4,9.9e-4 0.11229,0.22895 0.32493,0.33563 0.55133,0.32006 0.22641,-0.0156 0.46883,-0.14825 0.66623,-0.37825 l -0.0356,-0.0305 0.0356,0.0305 c 0.18853,-0.22443 0.4978,-0.31479 0.70279,-0.43719 0.10318,-0.0613 0.18717,-0.13767 0.19433,-0.2491 0.007,-0.11278 -0.0581,-0.23908 -0.20833,-0.40887 -0.0496,-0.0562 -0.0721,-0.16146 -0.0969,-0.27192 -0.0231,-0.11211 -0.0514,-0.23179 -0.14196,-0.30931 -0.0358,-0.0319 -0.0729,-0.0539 -0.11153,-0.0685 0.12951,-0.37402 0.083,-0.74898 -0.0417,-1.08901 -0.15342,-0.41495 -0.42432,-0.77885 -0.63075,-1.02891 -0.23225,-0.29754 -0.45778,-0.57942 -0.45063,-0.99374 0.0126,-0.63157 0.0845,-1.80449 -1.02696,-1.81508 z m 0.14188,0.97514 c 0.063,9.9e-4 0.11748,0.0187 0.17163,0.0602 0.0569,0.0411 0.0958,0.092 0.12828,0.16356 0.0323,0.0702 0.0461,0.13912 0.048,0.21978 -5.1e-4,0.003 -3.5e-4,0.004 -1.9e-4,0.005 7e-4,0.0822 -0.0144,0.15308 -0.046,0.22518 -0.0186,0.0407 -0.0396,0.0748 -0.064,0.10523 -0.009,-0.004 -0.0168,-0.008 -0.0257,-0.0126 -0.0631,-0.0275 -0.11054,-0.045 -0.15057,-0.0595 0.0155,-0.0165 0.0274,-0.0379 0.0372,-0.0632 0.0174,-0.0391 0.0253,-0.0767 0.0265,-0.12153 -1.6e-4,-9.9e-4 3.5e-4,-0.004 0.002,-0.005 0.001,-0.0434 -0.005,-0.0802 -0.0181,-0.11852 -0.0115,-0.04 -0.0293,-0.0692 -0.0528,-0.0934 -0.0248,-0.0239 -0.0489,-0.0354 -0.0785,-0.0362 -9.8e-4,1.6e-4 -0.003,-5.1e-4 -0.004,-3.5e-4 -0.0279,4.4e-4 -0.0516,0.009 -0.0763,0.029 -0.0271,0.0225 -0.0464,0.0493 -0.0625,0.0883 -0.016,0.0389 -0.0239,0.0765 -0.0263,0.12288 1.6e-4,9.9e-4 -5.1e-4,0.003 -1.9e-4,0.005 0,0.0251 5.6e-4,0.0474 0.004,0.0705 -0.0563,-0.0286 -0.10846,-0.0495 -0.15917,-0.0608 -0.003,-0.022 -0.004,-0.044 -0.004,-0.0677 l 3e-5,-0.006 c -9.2e-4,-0.0836 0.0128,-0.15422 0.046,-0.22517 0.0316,-0.0721 0.0723,-0.12334 0.12705,-0.16427 0.0559,-0.0426 0.11019,-0.061 0.1743,-0.0616 10e-4,8.3e-4 0.003,5.1e-4 0.004,3.5e-4 z m -0.86394,0.0611 c 0.0419,3.3e-4 0.079,0.0138 0.11757,0.0452 0.0417,0.0338 0.0739,0.0774 0.10035,0.13737 0.0253,0.0615 0.0392,0.12209 0.0425,0.19414 0.002,0.0304 0.001,0.0584 -0.002,0.0854 -0.008,0.002 -0.0158,0.006 -0.0239,0.008 -0.0452,0.0144 -0.0849,0.0361 -0.12037,0.0585 0.003,-0.0242 0.005,-0.0483 0.002,-0.0756 -1.6e-4,-9.8e-4 -4.8e-4,-0.003 -6.3e-4,-0.004 -0.003,-0.0358 -0.0108,-0.0666 -0.0227,-0.0968 -0.0132,-0.0314 -0.0283,-0.0541 -0.0478,-0.0718 -0.0179,-0.0153 -0.0345,-0.0237 -0.054,-0.0234 -0.003,4.8e-4 -0.004,6.4e-4 -0.005,8e-4 -0.0209,3.3e-4 -0.0389,0.0103 -0.0563,0.0314 -0.0164,0.0194 -0.0277,0.045 -0.0362,0.0785 -0.007,0.0333 -0.0103,0.0659 -0.007,0.10304 1.6e-4,9.8e-4 4.8e-4,0.003 6.4e-4,0.004 0.003,0.0372 0.0107,0.0666 0.0229,0.0982 0.0132,0.0314 0.0283,0.0541 0.0476,0.0705 0.004,0.003 0.006,0.006 0.0115,0.008 -0.0211,0.016 -0.0312,0.0232 -0.0486,0.0358 -0.0111,0.009 -0.0237,0.0178 -0.0386,0.0285 -0.0328,-0.031 -0.0587,-0.0701 -0.0809,-0.12095 -0.0253,-0.0616 -0.0392,-0.12209 -0.0422,-0.1928 l -1.6e-4,-9.9e-4 c -0.004,-0.0721 0.004,-0.13319 0.0241,-0.19651 0.0205,-0.0634 0.0466,-0.10941 0.0853,-0.14637 0.0387,-0.0369 0.0762,-0.0555 0.12332,-0.0576 0.003,-4.8e-4 0.007,-10e-4 0.011,-7.6e-4 z m 0.38886,0.49841 c 0.0979,9.2e-4 0.2146,0.0323 0.35526,0.12556 0.086,0.0573 0.15395,0.0631 0.31014,0.13143 0.0748,0.0312 0.11767,0.0718 0.13987,0.11424 0.0209,0.0427 0.0214,0.0887 0.002,0.1364 -0.0375,0.0968 -0.15259,0.1963 -0.31484,0.24619 -0.0785,0.0238 -0.14767,0.0796 -0.22948,0.12636 -0.0806,0.0451 -0.17239,0.0822 -0.29671,0.073 -0.10576,-0.007 -0.16901,-0.0439 -0.22654,-0.0891 -0.0564,-0.0467 -0.10638,-0.10568 -0.17887,-0.14842 l -1.6e-4,-9.9e-4 c -0.11679,-0.0663 -0.18094,-0.1439 -0.2003,-0.21196 -0.0189,-0.0668 -2.5e-4,-0.1228 0.0585,-0.16577 0.0659,-0.0497 0.11236,-0.0823 0.14238,-0.10389 0.0312,-0.0232 0.0439,-0.0308 0.0536,-0.0393 0.0496,-0.0471 0.12824,-0.13096 0.24739,-0.17112 0.041,-0.0137 0.0872,-0.0222 0.1374,-0.0222 z m 0.67729,0.40863 c -0.0429,0.002 -0.0872,0.0222 -0.13824,0.0516 -0.0513,0.0278 -0.10839,0.0636 -0.17111,0.0988 -0.12521,0.0719 -0.27078,0.13859 -0.41326,0.13786 -0.1425,-7.2e-4 -0.25678,-0.0689 -0.34183,-0.13748 -0.0417,-0.0338 -0.0767,-0.0686 -0.10463,-0.0948 -0.0147,-0.013 -0.0263,-0.025 -0.0377,-0.0344 -0.0115,-0.008 -0.021,-0.0176 -0.0404,-0.0172 l -5.4e-4,0.0406 c -0.002,0.0129 -0.003,0.013 -0.002,0.0129 1.6e-4,9.9e-4 0.004,0.002 0.011,0.005 0.008,0.007 0.0196,0.0178 0.0329,0.031 0.0279,0.0262 0.0644,0.0622 0.10933,0.0982 0.0898,0.072 0.21513,0.14817 0.37438,0.149 0.15927,8.5e-4 0.31077,-0.0724 0.43869,-0.1447 0.0641,-0.0354 0.12249,-0.0714 0.17111,-0.0988 0.0499,-0.0276 0.0907,-0.0439 0.11555,-0.0452 l -0.004,-0.0538 z m 0.13991,0.19238 c 0.10242,0.41899 0.34397,1.02492 0.4992,1.32093 0.0839,0.15675 0.24799,0.49042 0.3168,0.89109 0.0459,-0.001 0.0972,0.005 0.15124,0.0203 0.19332,-0.48902 -0.15211,-1.02095 -0.3115,-1.16973 -0.0634,-0.0637 -0.0664,-0.0912 -0.034,-0.0894 0.17159,0.15517 0.39606,0.46514 0.47624,0.81512 0.0368,0.15879 0.0426,0.32674 0.001,0.49118 0.0208,0.008 0.0404,0.0172 0.0601,0.0266 0.30347,0.15066 0.4138,0.28082 0.35828,0.45589 -0.0169,-0.001 -0.035,-4.3e-4 -0.0516,2.2e-4 -9.9e-4,1.6e-4 -0.003,-5.1e-4 -0.004,-3.5e-4 0.0446,-0.1384 -0.0515,-0.24155 -0.31098,-0.36162 -0.26805,-0.12148 -0.48264,-0.11059 -0.52083,0.12867 -0.002,0.0129 -0.004,0.0258 -0.006,0.0387 -0.02,0.006 -0.0406,0.0167 -0.0614,0.0266 -0.12585,0.0678 -0.1963,0.19359 -0.23583,0.34652 -0.0393,0.15431 -0.0525,0.34069 -0.065,0.54928 -0.007,0.10575 -0.0522,0.24711 -0.0963,0.398 -0.44409,0.31031 -1.05805,0.44144 -1.57383,0.0821 -0.0355,-0.0557 -0.0753,-0.11209 -0.11626,-0.1669 -0.0266,-0.0348 -0.0531,-0.0696 -0.081,-0.10419 0.0546,0.001 0.0992,-0.008 0.13588,-0.0229 0.0468,-0.0215 0.0779,-0.0531 0.0948,-0.0962 0.0324,-0.0847 0.002,-0.20548 -0.0988,-0.34419 -0.10057,-0.13872 -0.27077,-0.29413 -0.52232,-0.45177 -0.18357,-0.11695 -0.28613,-0.25954 -0.33472,-0.41362 -0.0473,-0.1543 -0.0391,-0.32032 8e-5,-0.48437 0.0748,-0.31498 0.26173,-0.6187 0.38145,-0.8111 0.0314,-0.0218 0.0112,0.0443 -0.12134,0.28618 -0.11941,0.22027 -0.34274,0.73087 -0.0463,1.13251 0.0101,-0.28358 0.0805,-0.57411 0.19745,-0.84422 0.16848,-0.37474 0.52145,-1.02491 0.5534,-1.54512 0.0142,0.0103 0.063,0.0442 0.0844,0.0562 0.0634,0.0386 0.11006,0.0939 0.1712,0.14408 0.0627,0.0513 0.1395,0.0947 0.25659,0.10236 0.13679,0.009 0.24056,-0.0317 0.32619,-0.0806 0.0858,-0.0474 0.15527,-0.10182 0.21905,-0.12183 0,0 9.8e-4,-1.6e-4 9.8e-4,-1.6e-4 0.1357,-0.0414 0.24506,-0.1163 0.30782,-0.20319 z m 0.84628,2.39977 c 0.0546,0.001 0.12179,0.0195 0.19412,0.0525 0.1966,0.0939 0.25804,0.17194 0.2024,0.28561 -0.046,0.0869 -0.24042,0.22302 -0.37365,0.18449 -0.13551,-0.0354 -0.19928,-0.23167 -0.17698,-0.37904 0.013,-0.10116 0.0703,-0.14394 0.15411,-0.1435 z m -0.22613,0.26819 c 0.01,0.18129 0.0982,0.36661 0.25567,0.40821 0.17238,0.0476 0.42372,-0.099 0.52991,-0.21946 0.0209,-3.4e-4 0.0416,-0.002 0.0611,-0.002 0.0931,-0.002 0.16966,0.005 0.24926,0.0743 0.06,0.0517 0.0883,0.14908 0.11307,0.25954 0.0227,0.1094 0.0418,0.22776 0.11748,0.31326 0.14345,0.16251 0.18888,0.27103 0.18467,0.34011 -0.004,0.0691 -0.0559,0.12068 -0.14886,0.17615 -0.18612,0.10964 -0.51422,0.20438 -0.72623,0.45633 -0.18304,0.21517 -0.40567,0.33203 -0.60171,0.34551 -0.19604,0.0135 -0.3628,-0.0685 -0.46076,-0.26907 -0.061,-0.11858 -0.0335,-0.30308 0.0203,-0.4974 0.0522,-0.19546 0.12894,-0.39488 0.14022,-0.55861 0.0124,-0.20859 0.0263,-0.3909 0.0624,-0.53071 0.0359,-0.14119 0.0918,-0.23536 0.19069,-0.28899 0.004,-0.002 0.009,-0.005 0.013,-0.006 z m -3.17619,-0.0126 c 0.0152,-10e-4 0.0309,0.001 0.0467,0.004 0.11024,0.0171 0.20679,0.0965 0.29834,0.22268 0.0918,0.12757 0.17694,0.30087 0.26498,0.49187 0.0704,0.15057 0.2199,0.31628 0.34613,0.48437 0.12639,0.16944 0.22342,0.33805 0.20937,0.46733 -0.0177,0.21922 -0.14224,0.33841 -0.33366,0.38046 -0.19007,0.0418 -0.44742,-0.005 -0.70248,-0.14076 -0.28306,-0.15395 -0.6216,-0.14122 -0.83861,-0.18857 -0.10861,-0.0243 -0.1798,-0.0589 -0.21096,-0.12231 -0.0325,-0.0631 -0.032,-0.1735 0.0393,-0.36228 l -4.8e-4,-0.003 c 0.0348,-0.10468 0.0107,-0.21949 -0.005,-0.32854 -0.0146,-0.10931 -0.0223,-0.20718 0.0154,-0.27608 0.0483,-0.0901 0.11845,-0.1224 0.20425,-0.15299 0.086,-0.0293 0.18833,-0.0527 0.27029,-0.13293 l -1.6e-4,-9.9e-4 c 0.0754,-0.0778 0.1321,-0.17624 0.19907,-0.24567 0.0563,-0.0579 0.11129,-0.0976 0.19511,-0.0971 0,0 9.9e-4,-1.6e-4 0.003,5.1e-4 z m 0,0"
       id="path13085" />
  </g>
</svg>
