<?xml version="1.0" encoding="UTF-8" standalone="no"?>
<!-- Created with Inkscape (http://www.inkscape.org/) -->

<svg
   xmlns:dc="http://purl.org/dc/elements/1.1/"
   xmlns:cc="http://creativecommons.org/ns#"
   xmlns:rdf="http://www.w3.org/1999/02/22-rdf-syntax-ns#"
   xmlns:svg="http://www.w3.org/2000/svg"
   xmlns="http://www.w3.org/2000/svg"
   xmlns:sodipodi="http://sodipodi.sourceforge.net/DTD/sodipodi-0.dtd"
   xmlns:inkscape="http://www.inkscape.org/namespaces/inkscape"
   width="6.1600308mm"
   height="7.0430002mm"
   viewBox="0 0 6.1600308 7.0430002"
   version="1.1"
   id="svg22783"
   inkscape:version="0.92.0 r"
   sodipodi:docname="os_osx.svg">
  <defs
     id="defs22777" />
  <sodipodi:namedview
     id="base"
     pagecolor="#ffffff"
     bordercolor="#666666"
     borderopacity="1.0"
     inkscape:pageopacity="0.0"
     inkscape:pageshadow="2"
     inkscape:zoom="5.6"
     inkscape:cx="-94.875194"
     inkscape:cy="11.124099"
     inkscape:document-units="mm"
     inkscape:current-layer="layer1"
     showgrid="false"
     fit-margin-top="0"
     fit-margin-left="0"
     fit-margin-right="0"
     fit-margin-bottom="0"
     inkscape:window-width="2560"
     inkscape:window-height="1395"
     inkscape:window-x="0"
     inkscape:window-y="23"
     inkscape:window-maximized="0" />
  <metadata
     id="metadata22780">
    <rdf:RDF>
      <cc:Work
         rdf:about="">
        <dc:format>image/svg+xml</dc:format>
        <dc:type
           rdf:resource="http://purl.org/dc/dcmitype/StillImage" />
        <dc:title></dc:title>
      </cc:Work>
    </rdf:RDF>
  </metadata>
  <g
     inkscape:label="Layer 1"
     inkscape:groupmode="layer"
     id="layer1"
     transform="translate(-102.4168,-144.73358)">
    <path
       inkscape:connector-curvature="0"
       style="fill:#ffffff;fill-opacity:1;fill-rule:nonzero;stroke:none;stroke-width:0.35277775"
       d="m 106.60711,145.85783 c 0.26423,-0.29829 0.44263,-0.71139 0.39389,-1.12425 -0.38075,0.0156 -0.84077,0.23722 -1.11381,0.53505 -0.24475,0.26399 -0.45889,0.68403 -0.40199,1.08935 0.42556,0.0304 0.85767,-0.20186 1.12191,-0.50015 z m 0.95394,2.61636 c -0.01,-0.89226 0.78061,-1.32047 0.81579,-1.34234 -0.44371,-0.60428 -1.13746,-0.68637 -1.3829,-0.69507 -0.58932,-0.0553 -1.1502,0.32368 -1.44848,0.3241 -0.29829,-5e-5 -0.75928,-0.31326 -1.24737,-0.30549 -0.64252,0.0104 -1.23457,0.35032 -1.56518,0.88457 -0.66666,1.0775 -0.16919,2.67293 0.48029,3.54682 0.31835,0.42624 0.69842,0.90658 1.19498,0.88935 0.47893,-0.0181 0.65992,-0.29061 1.23854,-0.29042 0.57974,-7.3e-4 0.74273,0.28782 1.24908,0.27713 0.51595,-0.009 0.84186,-0.43651 1.15708,-0.86462 0.36403,-0.49717 0.51407,-0.97812 0.52395,-1.00218 -0.0122,-0.005 -1.00481,-0.3575 -1.01586,-1.42172 z m 0,0"
       id="path13093" />
  </g>
</svg>
