<?xml version="1.0" encoding="UTF-8" standalone="no"?>
<?xml-stylesheet type="text/css" href="../../css/main.css"?>
<svg
   xmlns:dc="http://purl.org/dc/elements/1.1/"
   xmlns:cc="http://creativecommons.org/ns#"
   xmlns:rdf="http://www.w3.org/1999/02/22-rdf-syntax-ns#"
   xmlns:svg="http://www.w3.org/2000/svg"
   xmlns="http://www.w3.org/2000/svg"
   id="svg15572"
   version="1.1"
   viewBox="0 0 6.4767847 5.6596022"
   height="5.6596022mm"
   width="6.4767847mm">
  <defs
     id="defs15566" />
  <metadata
     id="metadata15569">
    <rdf:RDF>
      <cc:Work
         rdf:about="">
        <dc:format>image/svg+xml</dc:format>
        <dc:type
           rdf:resource="http://purl.org/dc/dcmitype/StillImage" />
        <dc:title></dc:title>
      </cc:Work>
    </rdf:RDF>
  </metadata>
  <g
     transform="translate(710.80973,13.50242)"
     id="layer1">
    <path
       id="path12897"
       d="m -704.67272,-12.89884 -0.40789,-0.219108 c 0,0 -0.61048,-0.384472 -2.36334,-0.384472 h -0.26872 c -1.38217,0 -2.30959,0.384472 -2.30959,0.384472 l -0.44786,0.230133 c -0.5526,0.28801 -0.26459,0.767567 -0.26459,0.767567 0,0 0.0593,0.115755 0.13229,0.261827 0.0717,0.146072 0.26735,0.192926 0.43684,0.108865 l 0.92329,-0.469911 c 0.16812,-0.08544 0.26045,-0.23151 0.20946,-0.327973 -0.0524,-0.09508 -0.10611,-0.198437 -0.11162,-0.232888 -0.005,-0.03307 0.18466,-0.112999 0.36518,-0.170877 0.2701,-0.08544 0.67524,-0.209462 1.0666,-0.209462 h 0.32384 c 0,0 0.98254,0.02067 1.39457,0.37207 0.007,0.0055 0.0124,0.01929 0.0152,0.02067 0.01,0.0055 0.011,0.01653 0.006,0.02894 -0.003,0.0055 -0.007,0.01516 -0.01,0.0248 -0.0262,0.06063 -0.0551,0.122645 -0.0827,0.173633 -0.051,0.09371 0.0358,0.237022 0.20395,0.325217 l 0.86955,0.458886 c 0.16812,0.0882 0.36518,0.04134 0.44373,-0.106109 l 0.14056,-0.264583 c 0,0 0.28801,-0.483691 -0.26458,-0.771701"
       style="fill:var(--ajw-banner-element);fill-opacity:1;fill-rule:nonzero;stroke:none;stroke-width:0.35277775" />
    <path
       id="path12899"
       d="m -707.55695,-10.466602 c -0.40101,0 -0.7276,0.326595 -0.7276,0.7276037 0,0.4023873 0.32659,0.7289827 0.7276,0.7289827 0.40239,0 0.72761,-0.3265954 0.72761,-0.7289827 0,-0.4010087 -0.32522,-0.7276037 -0.72761,-0.7276037"
       style="fill:var(--ajw-banner-element);fill-opacity:1;fill-rule:nonzero;stroke:none;stroke-width:0.35277775" />
    <path
       id="path12901"
       d="m -708.65662,-9.839595 c 0.0165,0.00414 0.0317,0.00689 0.0482,0.00689 0.0854,0 0.15847,-0.056499 0.18052,-0.1391817 0.0276,-0.099219 -0.0331,-0.2025713 -0.13229,-0.2287543 -0.0152,-0.0041 -0.0317,-0.0069 -0.0482,-0.0069 -0.0841,0 -0.15848,0.0565 -0.18053,0.139182 -0.0124,0.04823 -0.005,0.097841 0.0179,0.1419378 0.0262,0.042719 0.0661,0.074414 0.11437,0.086817"
       style="fill:var(--ajw-banner-element);fill-opacity:1;fill-rule:nonzero;stroke:none;stroke-width:0.35277775" />
    <path
       id="path12903"
       d="m -708.44579,-9.3627936 c 0.0248,-0.042719 0.0317,-0.093707 0.0179,-0.1419378 -0.022,-0.082682 -0.0951,-0.1391822 -0.18052,-0.1391822 -0.0165,0 -0.0317,0.00138 -0.0482,0.00689 -0.0992,0.026183 -0.15848,0.1295355 -0.13229,0.2287543 0.0221,0.081304 0.0965,0.1391816 0.18052,0.1391816 0.0165,0 0.0331,-0.00275 0.0482,-0.00689 0.0482,-0.012404 0.0896,-0.044097 0.11438,-0.086816"
       style="fill:var(--ajw-banner-element);fill-opacity:1;fill-rule:nonzero;stroke:none;stroke-width:0.35277775" />
    <path
       id="path12905"
       d="m -707.78984,-8.8680781 c -0.0165,-0.00414 -0.0331,-0.00551 -0.0482,-0.00551 -0.0854,0 -0.15985,0.056499 -0.18052,0.1378038 -0.0138,0.048231 -0.007,0.099219 0.0179,0.1419381 0.0248,0.044097 0.0661,0.074414 0.11437,0.086816 0.0978,0.027563 0.20258,-0.034452 0.22876,-0.1309137 0.0124,-0.049609 0.007,-0.099219 -0.0193,-0.1419379 -0.0248,-0.044097 -0.0648,-0.074414 -0.113,-0.088195"
       style="fill:var(--ajw-banner-element);fill-opacity:1;fill-rule:nonzero;stroke:none;stroke-width:0.35277775" />
    <path
       id="path12907"
       d="m -708.3259,-9.1560879 c -0.0496,0 -0.0978,0.019293 -0.13229,0.055121 -0.073,0.073036 -0.073,0.1915475 0,0.2645833 0.0703,0.07028 0.19293,0.07028 0.26459,0 0.073,-0.073036 0.073,-0.1915475 0,-0.2645833 -0.0358,-0.035829 -0.0827,-0.055121 -0.1323,-0.055121"
       style="fill:var(--ajw-banner-element);fill-opacity:1;fill-rule:nonzero;stroke:none;stroke-width:0.35277775" />
    <path
       id="path12909"
       d="m -707.32268,-10.60854 c 0.0152,0.0041 0.0317,0.0055 0.0482,0.0055 0.0841,0 0.15847,-0.0565 0.18052,-0.139182 0.0262,-0.09922 -0.0331,-0.201193 -0.13229,-0.228754 -0.0165,-0.0041 -0.0317,-0.0069 -0.0482,-0.0069 -0.0841,0 -0.15986,0.05788 -0.18053,0.139182 -0.0276,0.100597 0.0317,0.20395 0.1323,0.230133"
       style="fill:var(--ajw-banner-element);fill-opacity:1;fill-rule:nonzero;stroke:none;stroke-width:0.35277775" />
    <path
       id="path12911"
       d="m -706.66674,-10.113824 c -0.0262,0.0441 -0.0317,0.09371 -0.0193,0.1419374 0.022,0.081304 0.0965,0.1391819 0.18052,0.1391819 0.0165,0 0.0331,-0.00275 0.0482,-0.00689 0.0496,-0.01378 0.0896,-0.044097 0.11437,-0.086817 0.0248,-0.042719 0.0317,-0.093706 0.0193,-0.1419373 -0.022,-0.0813 -0.0965,-0.139182 -0.1819,-0.139182 -0.0152,0 -0.0331,0.0027 -0.0482,0.0069 -0.0482,0.0124 -0.0882,0.0441 -0.113,0.08682"
       style="fill:var(--ajw-banner-element);fill-opacity:1;fill-rule:nonzero;stroke:none;stroke-width:0.35277775" />
    <path
       id="path12913"
       d="m -707.83807,-10.603028 c 0.0152,0 0.0317,-0.0014 0.0482,-0.0055 0.0482,-0.01378 0.0882,-0.0441 0.113,-0.08819 0.0262,-0.04272 0.0317,-0.09371 0.0193,-0.141938 -0.022,-0.0813 -0.0965,-0.139182 -0.18053,-0.139182 -0.0165,0 -0.0331,0.0028 -0.0482,0.0069 -0.10059,0.02618 -0.15985,0.129535 -0.13229,0.228754 0.0207,0.08268 0.0951,0.139182 0.18052,0.139182"
       style="fill:var(--ajw-banner-element);fill-opacity:1;fill-rule:nonzero;stroke:none;stroke-width:0.35277775" />
    <path
       id="path12915"
       d="m -708.1936,-10.375652 c 0.0344,-0.03583 0.0551,-0.08268 0.0537,-0.132291 0,-0.05099 -0.0193,-0.09784 -0.0537,-0.132292 -0.0358,-0.03583 -0.0827,-0.05512 -0.1323,-0.05512 -0.0496,0 -0.0978,0.01929 -0.13229,0.05512 -0.0358,0.03445 -0.0551,0.0813 -0.0551,0.132292 0,0.04961 0.0193,0.09646 0.0551,0.132291 0.0703,0.07166 0.19431,0.07028 0.26459,0"
       style="fill:var(--ajw-banner-element);fill-opacity:1;fill-rule:nonzero;stroke:none;stroke-width:0.35277775" />
    <path
       id="path12917"
       d="m -706.4559,-9.6370231 c -0.0165,-0.00551 -0.0331,-0.00689 -0.0496,-0.00689 -0.0841,0 -0.15847,0.0565 -0.18052,0.139182 -0.0124,0.048231 -0.005,0.099219 0.0193,0.1419381 0.0248,0.042719 0.0648,0.074414 0.113,0.086816 0.0165,0.00414 0.0331,0.00689 0.0482,0.00689 0.0854,0 0.15985,-0.057877 0.18052,-0.1391817 0.0276,-0.099219 -0.0317,-0.2025718 -0.13091,-0.2287541"
       style="fill:var(--ajw-banner-element);fill-opacity:1;fill-rule:nonzero;stroke:none;stroke-width:0.35277775" />
    <path
       id="path12919"
       d="m -706.59921,-10.507943 c 0,-0.04961 -0.0193,-0.09646 -0.0551,-0.132292 -0.0358,-0.03583 -0.0827,-0.05512 -0.13229,-0.05512 -0.051,0 -0.0978,0.01929 -0.13229,0.05512 -0.073,0.07304 -0.073,0.191547 0,0.264583 0.0345,0.03583 0.0813,0.05512 0.13229,0.05512 0.0496,0 0.0965,-0.01929 0.13229,-0.05512 0.0358,-0.03583 0.0551,-0.08268 0.0551,-0.132291"
       style="fill:var(--ajw-banner-element);fill-opacity:1;fill-rule:nonzero;stroke:none;stroke-width:0.35277775" />
    <path
       id="path12921"
       d="m -704.74024,-9.234636 -0.93155,-2.232422 c -0.0358,-0.08957 -0.14332,-0.179145 -0.24116,-0.179145 h -0.3514 v -0.494715 c 0,-0.158475 -0.12954,-0.288011 -0.28939,-0.288011 h -0.0923 c -0.15847,0 -0.28801,0.129536 -0.28801,0.288011 v 0.494715 h -1.21129 v -0.494715 c 0,-0.158475 -0.12954,-0.288011 -0.28801,-0.288011 h -0.0937 c -0.15847,0 -0.28801,0.129536 -0.28801,0.288011 v 0.494715 h -0.38585 c -0.0965,0 -0.20533,0.08957 -0.23978,0.180523 l -0.94671,2.2282878 c -0.0358,0.09095 -0.0331,0.2411566 0.004,0.3293512 l 0.45062,0.8915906 c 0.0386,0.088195 0.14882,0.1736328 0.24528,0.1736328 h 4.26228 c 0.0965,0 0.2067,-0.082682 0.24529,-0.1722549 l 0.43546,-0.8833223 c 0.0372,-0.089572 0.04,-0.2466689 0.004,-0.3362412 z m -2.81671,0.9577363 c -0.80615,0 -1.46072,-0.655946 -1.46072,-1.4620986 0,-0.8047737 0.65457,-1.4607207 1.46072,-1.4607207 0.80615,0 1.4621,0.655947 1.4621,1.4607207 0,0.8061526 -0.65595,1.4620986 -1.4621,1.4620986 z m 0,0"
       style="fill:var(--ajw-banner-element);fill-opacity:1;fill-rule:nonzero;stroke:none;stroke-width:0.35277775" />
  </g>
</svg>
