<?xml version="1.0" encoding="UTF-8" standalone="no"?>
<svg
   xmlns:dc="http://purl.org/dc/elements/1.1/"
   xmlns:cc="http://creativecommons.org/ns#"
   xmlns:rdf="http://www.w3.org/1999/02/22-rdf-syntax-ns#"
   xmlns:svg="http://www.w3.org/2000/svg"
   xmlns="http://www.w3.org/2000/svg"
   xmlns:sodipodi="http://sodipodi.sourceforge.net/DTD/sodipodi-0.dtd"
   xmlns:inkscape="http://www.inkscape.org/namespaces/inkscape"
   id="svg20379"
   version="1.1"
   viewBox="0 0 11 11"
   height="11mm"
   width="11mm"
   sodipodi:docname="programming.svg"
   inkscape:version="0.92.0 r">
  <sodipodi:namedview
     pagecolor="#ffffff"
     bordercolor="#666666"
     borderopacity="1"
     objecttolerance="10"
     gridtolerance="10"
     guidetolerance="10"
     inkscape:pageopacity="0"
     inkscape:pageshadow="2"
     inkscape:window-width="1768"
     inkscape:window-height="1255"
     id="namedview4541"
     showgrid="false"
     inkscape:zoom="2.7069788"
     inkscape:cx="21.427612"
     inkscape:cy="17.21212"
     inkscape:window-x="0"
     inkscape:window-y="23"
     inkscape:window-maximized="0"
     inkscape:current-layer="svg20379" />
  <defs
     id="defs20373" />
  <metadata
     id="metadata20376">
    <rdf:RDF>
      <cc:Work
         rdf:about="">
        <dc:format>image/svg+xml</dc:format>
        <dc:type
           rdf:resource="http://purl.org/dc/dcmitype/StillImage" />
        <dc:title></dc:title>
      </cc:Work>
    </rdf:RDF>
  </metadata>
  <g
     transform="matrix(0.97464766,0,0,0.97464766,408.52259,-124.82403)"
     id="layer1"
     style="stroke-width:1.02601182">
    <path
       id="path12985"
       d="m -413.94002,133.71499 v -0.003 c 0,-0.18466 -0.0758,-0.35002 -0.19843,-0.46853 l -3.90674,-3.90399 -0.001,0.001 c -0.11714,-0.11162 -0.27561,-0.18052 -0.45062,-0.18052 -0.35967,0 -0.65181,0.29077 -0.65181,0.65043 0,0.19706 0.0882,0.37483 0.22737,0.49334 l 3.41203,3.40927 -3.4575,3.45199 0.001,10e-4 c -0.113,0.11714 -0.18328,0.27561 -0.18328,0.45063 0,0.35966 0.29215,0.65043 0.65181,0.65043 0.17501,0 0.33487,-0.0689 0.452,-0.1819 l 3.90674,-3.90261 v -0.001 c 0.12264,-0.11713 0.19844,-0.28387 0.19844,-0.46715 z m 5.53558,3.25217 h -4.99263 c -0.30041,0 -0.54295,0.24253 -0.54295,0.54295 v 0.21635 c 0,0.29903 0.24254,0.54157 0.54295,0.54157 h 4.99263 c 0.29904,0 0.54157,-0.24254 0.54157,-0.54157 v -0.21635 c 0,-0.30042 -0.24253,-0.54295 -0.54157,-0.54295 z m 0,0"
       style="fill:#000000;fill-opacity:1;fill-rule:evenodd;stroke:none;stroke-width:0.36195415"
       inkscape:connector-curvature="0" />
  </g>
</svg>
