<?xml version="1.0" encoding="UTF-8" standalone="no"?>
<?xml-stylesheet type="text/css" href="../../css/main.css"?><!-- Created with Inkscape (http://www.inkscape.org/) -->

<svg
   xmlns:dc="http://purl.org/dc/elements/1.1/"
   xmlns:cc="http://creativecommons.org/ns#"
   xmlns:rdf="http://www.w3.org/1999/02/22-rdf-syntax-ns#"
   xmlns:svg="http://www.w3.org/2000/svg"
   xmlns="http://www.w3.org/2000/svg"
   xmlns:sodipodi="http://sodipodi.sourceforge.net/DTD/sodipodi-0.dtd"
   xmlns:inkscape="http://www.inkscape.org/namespaces/inkscape"
   width="8.8540764mm"
   height="9.3877001mm"
   viewBox="0 0 8.8540764 9.3877001"
   version="1.1"
   id="svg19786"
   inkscape:version="0.92.0 r"
   sodipodi:docname="skills.svg">
  <defs
     id="defs19780" />
  <sodipodi:namedview
     id="base"
     pagecolor="#ffffff"
     bordercolor="#666666"
     borderopacity="1.0"
     inkscape:pageopacity="0.0"
     inkscape:pageshadow="2"
     inkscape:zoom="15.839192"
     inkscape:cx="-6.4232941"
     inkscape:cy="40.034685"
     inkscape:document-units="mm"
     inkscape:current-layer="layer1"
     showgrid="false"
     fit-margin-top="0"
     fit-margin-left="0"
     fit-margin-right="0"
     fit-margin-bottom="0"
     inkscape:window-width="2560"
     inkscape:window-height="1395"
     inkscape:window-x="0"
     inkscape:window-y="23"
     inkscape:window-maximized="0" />
  <metadata
     id="metadata19783">
    <rdf:RDF>
      <cc:Work
         rdf:about="">
        <dc:format>image/svg+xml</dc:format>
        <dc:type
           rdf:resource="http://purl.org/dc/dcmitype/StillImage" />
        <dc:title></dc:title>
      </cc:Work>
    </rdf:RDF>
  </metadata>
  <g
     inkscape:label="Layer 1"
     inkscape:groupmode="layer"
     id="layer1"
     transform="translate(-101.40609,-144.13922)">
    <path
       style="fill:var(--ajw-heading-element);fill-opacity:1;fill-rule:nonzero;stroke:none;stroke-width:1.33333325"
       d="M 16.144531 13.115234 C 15.584602 14.650941 12.147734 16.556959 9.5292969 16.476562 C 9.5237806 16.851752 9.549922 17.230591 9.6503906 17.611328 C 10.233723 19.861356 12.535809 21.210951 14.791016 20.617188 C 17.046222 20.028639 18.390639 17.726553 17.796875 15.476562 C 17.537575 14.476407 16.927978 13.668282 16.144531 13.115234 z "
       transform="matrix(0.26458333,0,0,0.26458333,101.40609,144.13922)"
       id="path12405" />
    <path
       inkscape:connector-curvature="0"
       style="fill:var(--ajw-heading-element);fill-opacity:1;fill-rule:nonzero;stroke:none;stroke-width:0.35277775"
       d="m 108.98254,149.26741 -1.22921,1.13827 -2.03812,-0.42995 c -0.12264,-0.0386 -0.25631,-0.0538 -0.39274,-0.0372 -0.16398,0.0193 -0.31143,0.0841 -0.43821,0.17501 l -1.53927,1.21681 -1.60128,-0.78824 -0.33762,0.56775 1.73633,1.19752 c 0.0744,0.0455 0.15709,0.0675 0.24115,0.0675 0.10335,0 0.20809,-0.0358 0.29352,-0.10335 l 0.88884,-0.70556 0.23427,1.96095 h 1.89893 l -0.28939,-2.44051 1.41249,0.29766 c 0.0331,0.007 0.0661,0.011 0.0978,0.011 0.13092,0 0.2577,-0.0551 0.34865,-0.15434 l 1.20165,-1.52825 z m 0,0"
       id="path12407" />
    <path
       style="fill:var(--ajw-heading-element);fill-opacity:1;fill-rule:nonzero;stroke:none;stroke-width:0.35277775"
       d="m 102.79825,144.13922 0.47801,1.94975 -10e-4,-0.092 0.21652,0.16226 0.25477,-0.0853 -0.0868,0.25476 0.1602,0.21652 -0.27027,-0.004 -0.11989,0.1695 0.20826,0.85059 c 0.0317,-0.1447 0.12523,-0.27423 0.26716,-0.34726 0.0248,-0.0124 0.0496,-0.0207 0.0744,-0.0289 -0.15159,0.11851 -0.20275,0.33073 -0.11318,0.5085 0.10335,0.20119 0.34881,0.28112 0.55139,0.17776 0.12264,-0.062 0.19964,-0.17914 0.21756,-0.30592 0.0469,0.22049 -0.0547,0.4532 -0.26562,0.56069 -0.21773,0.11024 -0.47559,0.0508 -0.6258,-0.12971 l 0.12247,0.50023 c 0.40376,0.18466 1.4044,-0.27113 1.72962,-0.72451 -0.11577,0.0441 -0.2465,-0.004 -0.30438,-0.11575 h 5.2e-4 c -0.062,-0.12127 -0.014,-0.26855 0.10593,-0.32918 0.011,-0.006 0.0238,-0.0102 0.0362,-0.014 -0.073,0.0565 -0.0978,0.15744 -0.0537,0.24288 0.0482,0.0965 0.16658,0.1349 0.26304,0.0853 0.0124,-0.007 0.0247,-0.0151 0.0357,-0.0233 0.006,-0.0179 0.0112,-0.0347 0.014,-0.0527 l -0.70952,-0.83923 -0.0222,0.0651 0.15968,0.21601 -0.26872,-0.006 -0.1571,0.22014 -0.0785,-0.25735 -0.25735,-0.0816 0.22014,-0.15554 -0.001,-0.26872 0.21497,0.16123 0.0785,-0.0264 -1.25522,-1.48518 -0.0935,0.13333 -0.0785,-0.25735 -0.25787,-0.0816 0.16123,-0.11265 z m 0.84853,1.25057 c -0.073,0.0565 -0.0977,0.15848 -0.0537,0.24391 0.0482,0.0951 0.16657,0.13354 0.26303,0.0853 0.0593,-0.0303 0.0953,-0.0866 0.1049,-0.14728 0.022,0.10611 -0.0276,0.21773 -0.12815,0.26872 -0.11989,0.0606 -0.26717,0.0124 -0.32918,-0.10749 -0.0606,-0.11989 -0.0124,-0.26768 0.10748,-0.32969 0.011,-0.006 0.0233,-0.01 0.0357,-0.0134 z"
       id="path5093"
       inkscape:connector-curvature="0" />
    <path
       style="fill:var(--ajw-heading-element);fill-opacity:1;fill-rule:nonzero;stroke:none;stroke-width:0.35277775"
       d="M 103.50346,145.73275"
       id="path12411" />
    <path
       inkscape:connector-curvature="0"
       style="fill:var(--ajw-heading-element);fill-opacity:1;fill-rule:nonzero;stroke:none;stroke-width:0.35277775"
       d="m 108.32108,145.69554 c -0.008,0.0152 -0.008,0.0358 0.004,0.051 l 0.17639,0.22049 c 0.0165,0.0193 0.0455,0.0221 0.0648,0.006 l 0.01,-0.008 c 0.0193,-0.0152 0.0221,-0.0441 0.006,-0.0648 l -0.18328,-0.21222 c -0.0165,-0.0193 -0.0469,-0.0234 -0.0661,-0.007 -0.006,0.004 -0.008,0.01 -0.011,0.0152 z m -0.33899,0.4768 c -0.001,0.003 -0.003,0.007 -0.004,0.01 -0.008,0.0234 0.003,0.0496 0.0276,0.0593 l 0.45337,0.18052 c 0.0234,0.01 0.051,-0.003 0.0606,-0.0275 l 0.006,-0.0165 c 0.01,-0.0248 -0.003,-0.0524 -0.0276,-0.062 l -0.45888,-0.16123 c -0.022,-0.008 -0.0441,0 -0.0565,0.0179 z m -0.0606,0.59394 c -0.004,0.008 -0.006,0.0179 -0.004,0.0262 0.004,0.0262 0.0289,0.0427 0.0537,0.0386 l 0.27974,-0.0413 c 0.0248,-0.006 0.0413,-0.0276 0.0372,-0.0524 l -0.003,-0.0138 c -0.004,-0.0248 -0.0276,-0.0413 -0.0524,-0.0372 l -0.27698,0.0524 c -0.0152,0.003 -0.0289,0.0138 -0.0345,0.0276 z m 0.93845,-1.32154 c -0.007,0.01 -0.01,0.0221 -0.007,0.0344 l 0.0703,0.48231 c 0.004,0.0262 0.0289,0.0441 0.0551,0.0386 l 0.0193,-0.003 c 0.0262,-0.004 0.0427,-0.0289 0.0372,-0.0551 l -0.0909,-0.47818 c -0.006,-0.0248 -0.0289,-0.0413 -0.0538,-0.0372 -0.0124,0.001 -0.0234,0.008 -0.0303,0.0179 z m -0.23427,0.6146 c -0.0441,0.0662 -0.006,0.28526 -0.0317,0.3514 -0.0262,0.073 -0.21773,0.226 -0.20533,0.30179 0.0124,0.0758 0.24529,0.15985 0.29352,0.21911 0.0496,0.0593 0.0868,0.30179 0.15847,0.32935 0.073,0.0262 0.25908,-0.13367 0.33487,-0.14607 0.0758,-0.0124 0.30592,0.0758 0.36518,0.0275 0.0593,-0.0496 0.0152,-0.29214 0.0427,-0.3638 0.0262,-0.0717 0.21773,-0.22738 0.20532,-0.30317 -0.0124,-0.0744 -0.24529,-0.1571 -0.29352,-0.21635 -0.0496,-0.0593 -0.0868,-0.30317 -0.15847,-0.32935 -0.073,-0.0275 -0.26045,0.13229 -0.33624,0.14469 -0.0758,0.0124 -0.30455,-0.0758 -0.36381,-0.0262 -0.004,0.003 -0.008,0.006 -0.011,0.011 z m 0.81993,-0.5581 c -0.001,0.003 -0.001,0.006 -0.003,0.008 l -0.10335,0.2632 c -0.01,0.0234 0.004,0.0482 0.0276,0.0579 l 0.0124,0.004 c 0.0234,0.01 0.0496,-0.003 0.0579,-0.0275 l 0.0923,-0.26596 c 0.008,-0.0234 -0.004,-0.0496 -0.0276,-0.0593 -0.0221,-0.007 -0.0441,0 -0.0565,0.0193 z m -1.27744,1.79834 c -0.008,0.0152 -0.006,0.0358 0.007,0.051 0.0165,0.0193 0.0441,0.0221 0.0648,0.007 l 0.38309,-0.30316 c 0.0193,-0.0165 0.022,-0.0469 0.006,-0.0661 l -0.011,-0.0152 c -0.0165,-0.0193 -0.0469,-0.0221 -0.0675,-0.006 l -0.36932,0.31695 c -0.006,0.004 -0.008,0.01 -0.0124,0.0152 z m 1.37528,-1.14791 c -0.008,0.0165 -0.007,0.0372 0.006,0.0524 l 0.0124,0.0152 c 0.0165,0.0193 0.0455,0.022 0.0661,0.005 l 0.36932,-0.31833 c 0.0193,-0.0165 0.022,-0.0455 0.006,-0.0661 -0.0152,-0.0193 -0.0455,-0.0221 -0.0648,-0.005 l -0.38309,0.30178 c -0.004,0.006 -0.008,0.01 -0.011,0.0152 z m -0.79926,1.22094 c -0.001,0.003 -0.003,0.005 -0.004,0.008 l -0.0923,0.26734 c -0.008,0.0248 0.003,0.051 0.0276,0.0593 0.0234,0.008 0.051,-0.004 0.0592,-0.0275 l 0.10336,-0.26183 c 0.008,-0.0248 -0.004,-0.051 -0.0276,-0.0593 l -0.011,-0.004 c -0.0207,-0.008 -0.0441,0 -0.0551,0.0179 z m 0.27285,-0.0841 0.24254,1.4373 c 0.0179,0.10197 0.113,0.1695 0.21359,0.15158 0.10198,-0.0165 0.17088,-0.113 0.15296,-0.21359 l -0.24253,-1.43592 c -0.0413,-0.008 -0.0813,-0.0179 -0.12127,-0.0262 -0.073,-0.0262 -0.14056,0.0234 -0.19981,0.062 -0.0138,0.008 -0.0303,0.0166 -0.0455,0.0248 z m 0.87919,-0.86954 c -0.006,0.01 -0.01,0.0221 -0.007,0.0344 l 0.001,0.0124 c 0.006,0.0248 0.0276,0.0413 0.0524,0.0372 l 0.27836,-0.0524 c 0.0248,-0.004 0.0427,-0.0276 0.0386,-0.0537 -0.004,-0.0248 -0.0289,-0.0427 -0.0537,-0.0386 l -0.27974,0.0413 c -0.0124,0.003 -0.0234,0.01 -0.0303,0.0193 z m -0.23427,0.36931 c -0.001,0.003 -0.003,0.007 -0.004,0.01 l -0.007,0.0179 c -0.008,0.0234 0.004,0.051 0.0289,0.0606 l 0.46027,0.15847 c 0.0248,0.008 0.051,-0.004 0.0593,-0.0275 0.01,-0.0248 -0.003,-0.051 -0.0276,-0.0606 l -0.45337,-0.17639 c -0.0207,-0.008 -0.0455,0 -0.0565,0.0179 z m -0.0717,0.45062 c -0.008,0.0152 -0.007,0.0358 0.006,0.0496 l 0.18328,0.2136 c 0.0165,0.0207 0.0455,0.0234 0.0648,0.007 0.0207,-0.0165 0.0234,-0.0441 0.007,-0.0648 l -0.17502,-0.22186 c -0.0165,-0.0193 -0.0441,-0.0221 -0.0634,-0.005 l -0.011,0.008 c -0.006,0.004 -0.008,0.008 -0.011,0.0138 z m 0,0"
       id="path12413" />
  </g>
</svg>
