<?xml version="1.0" encoding="UTF-8" standalone="no"?>
<?xml-stylesheet type="text/css" href="../../css/main.css"?>
<svg
   xmlns:dc="http://purl.org/dc/elements/1.1/"
   xmlns:cc="http://creativecommons.org/ns#"
   xmlns:rdf="http://www.w3.org/1999/02/22-rdf-syntax-ns#"
   xmlns:svg="http://www.w3.org/2000/svg"
   xmlns="http://www.w3.org/2000/svg"
   xmlns:sodipodi="http://sodipodi.sourceforge.net/DTD/sodipodi-0.dtd"
   xmlns:inkscape="http://www.inkscape.org/namespaces/inkscape"
   id="svg16785"
   version="1.1"
   viewBox="0 0 4.2443581 5.6596098"
   height="5.6596098mm"
   width="4.2443581mm"
   sodipodi:docname="where.svg"
   inkscape:version="0.92.0 r">
  <sodipodi:namedview
     pagecolor="#ffffff"
     bordercolor="#666666"
     borderopacity="1"
     objecttolerance="10"
     gridtolerance="10"
     guidetolerance="10"
     inkscape:pageopacity="0"
     inkscape:pageshadow="2"
     inkscape:window-width="1382"
     inkscape:window-height="910"
     id="namedview4532"
     showgrid="false"
     inkscape:zoom="11.032857"
     inkscape:cx="-2.8557682"
     inkscape:cy="10.695326"
     inkscape:window-x="379"
     inkscape:window-y="352"
     inkscape:window-maximized="0"
     inkscape:current-layer="svg16785" />
  <defs
     id="defs16779" />
  <metadata
     id="metadata16782">
    <rdf:RDF>
      <cc:Work
         rdf:about="">
        <dc:format>image/svg+xml</dc:format>
        <dc:type
           rdf:resource="http://purl.org/dc/dcmitype/StillImage" />
        <dc:title></dc:title>
      </cc:Work>
    </rdf:RDF>
  </metadata>
  <path
     inkscape:connector-curvature="0"
     style="fill:var(--ajw-banner-element);fill-opacity:1;fill-rule:nonzero;stroke:none;stroke-width:0.35277775"
     d="M 2.122177,0 C 0.949466,0 0,0.95085 0,2.12218 c 0,1.17271 2.122177,3.53743 2.122177,3.53743 0,0 2.122181,-2.36472 2.122181,-3.53743 C 4.244358,0.95085 3.293509,0 2.122177,0 Z m 0,0.70831 c 0.781347,0 1.415246,0.63252 1.415246,1.41387 0,0.78135 -0.633899,1.41525 -1.415246,1.41525 -0.781346,0 -1.415245,-0.6339 -1.415245,-1.41525 0,-0.78135 0.633899,-1.41387 1.415245,-1.41387 z m 0,0"
     id="path6655" />
  <path
     inkscape:connector-curvature="0"
     style="fill:var(--ajw-banner-element);fill-opacity:1;fill-rule:nonzero;stroke:none;stroke-width:0.35277775"
     d="m 2.122177,1.41525 c -0.391361,0 -0.706935,0.31695 -0.706935,0.70693 0,0.39136 0.315574,0.70831 0.706935,0.70831 0.389986,0 0.706935,-0.31695 0.706935,-0.70831 0,-0.38998 -0.316949,-0.70693 -0.706935,-0.70693 z m 0,0"
     id="path6657" />
</svg>
